G04 #@! TF.GenerationSoftware,KiCad,Pcbnew,(5.1.5)-3*
G04 #@! TF.CreationDate,2020-05-09T20:06:52-07:00*
G04 #@! TF.ProjectId,Rosie_SMD,526f7369-655f-4534-9d44-2e6b69636164,Version A2*
G04 #@! TF.SameCoordinates,Original*
G04 #@! TF.FileFunction,Legend,Bot*
G04 #@! TF.FilePolarity,Positive*
%FSLAX46Y46*%
G04 Gerber Fmt 4.6, Leading zero omitted, Abs format (unit mm)*
G04 Created by KiCad (PCBNEW (5.1.5)-3) date 2020-05-09 20:06:52*
%MOMM*%
%LPD*%
G04 APERTURE LIST*
%ADD10C,0.120000*%
%ADD11C,0.150000*%
G04 APERTURE END LIST*
D10*
X124500201Y-99827201D02*
G75*
G03X124500201Y-99827201I-6000000J0D01*
G01*
X125100201Y-99827201D02*
G75*
G03X125100201Y-99827201I-6600000J0D01*
G01*
X114944201Y-106685201D02*
X111896201Y-103383201D01*
X122056201Y-106685201D02*
X125104201Y-103383201D01*
X122056201Y-106685201D02*
X114944201Y-106685201D01*
X125104201Y-95255201D02*
G75*
G03X123580201Y-93731201I-1524000J0D01*
G01*
X113420201Y-93731201D02*
G75*
G03X111896201Y-95255201I0J-1524000D01*
G01*
X111896201Y-95255201D02*
X111896201Y-97795201D01*
X111896201Y-97795201D02*
X107705201Y-97795201D01*
X107705201Y-97795201D02*
X107705201Y-101859201D01*
X107705201Y-101859201D02*
X111896201Y-101859201D01*
X111896201Y-101859201D02*
X111896201Y-103383201D01*
X125104201Y-95255201D02*
X125104201Y-97795201D01*
X125104201Y-97795201D02*
X129295201Y-97795201D01*
X129295201Y-97795201D02*
X129295201Y-101859201D01*
X129295201Y-101859201D02*
X125104201Y-101859201D01*
X125104201Y-101859201D02*
X125104201Y-103383201D01*
X125104201Y-95255201D02*
G75*
G03X123580201Y-93731201I-1524000J0D01*
G01*
X114690202Y-94366199D02*
G75*
G03X122310199Y-94366199I3809999J5968998D01*
G01*
X114673036Y-94378215D02*
G75*
G03X111896202Y-95128202I-1252835J-876986D01*
G01*
X123580201Y-93704967D02*
G75*
G03X122310200Y-94366200I0J-1550234D01*
G01*
X114764000Y-113514000D02*
X121964000Y-113514000D01*
X121964000Y-113514000D02*
X121964000Y-110514000D01*
X121964000Y-110514000D02*
X114764000Y-110514000D01*
X114764000Y-110514000D02*
X114764000Y-113514000D01*
X119114000Y-113514000D02*
X119114000Y-114514000D01*
X119114000Y-114514000D02*
X117614000Y-114514000D01*
X117614000Y-114514000D02*
X117614000Y-113514000D01*
D11*
X119285915Y-91881772D02*
X119143058Y-91929391D01*
X119095439Y-91977010D01*
X119047820Y-92072248D01*
X119047820Y-92215105D01*
X119095439Y-92310343D01*
X119143058Y-92357962D01*
X119238296Y-92405581D01*
X119619248Y-92405581D01*
X119619248Y-91405581D01*
X119285915Y-91405581D01*
X119190677Y-91453201D01*
X119143058Y-91500820D01*
X119095439Y-91596058D01*
X119095439Y-91691296D01*
X119143058Y-91786534D01*
X119190677Y-91834153D01*
X119285915Y-91881772D01*
X119619248Y-91881772D01*
X118762105Y-91405581D02*
X118190677Y-91405581D01*
X118476391Y-92405581D02*
X118476391Y-91405581D01*
X117333534Y-92405581D02*
X117904962Y-92405581D01*
X117619248Y-92405581D02*
X117619248Y-91405581D01*
X117714486Y-91548439D01*
X117809724Y-91643677D01*
X117904962Y-91691296D01*
M02*
