G04 #@! TF.GenerationSoftware,KiCad,Pcbnew,(5.1.5)-3*
G04 #@! TF.CreationDate,2020-05-09T20:06:52-07:00*
G04 #@! TF.ProjectId,Rosie_SMD,526f7369-655f-4534-9d44-2e6b69636164,Version A2*
G04 #@! TF.SameCoordinates,Original*
G04 #@! TF.FileFunction,Soldermask,Bot*
G04 #@! TF.FilePolarity,Negative*
%FSLAX46Y46*%
G04 Gerber Fmt 4.6, Leading zero omitted, Abs format (unit mm)*
G04 Created by KiCad (PCBNEW (5.1.5)-3) date 2020-05-09 20:06:52*
%MOMM*%
%LPD*%
G04 APERTURE LIST*
%ADD10C,0.100000*%
G04 APERTURE END LIST*
D10*
G36*
X117024721Y-111484174D02*
G01*
X117124995Y-111525709D01*
X117124996Y-111525710D01*
X117215242Y-111586010D01*
X117291990Y-111662758D01*
X117291991Y-111662760D01*
X117352291Y-111753005D01*
X117393826Y-111853279D01*
X117415000Y-111959730D01*
X117415000Y-112068270D01*
X117393826Y-112174721D01*
X117352291Y-112274995D01*
X117352290Y-112274996D01*
X117291990Y-112365242D01*
X117215242Y-112441990D01*
X117169812Y-112472345D01*
X117124995Y-112502291D01*
X117024721Y-112543826D01*
X116918270Y-112565000D01*
X116809730Y-112565000D01*
X116703279Y-112543826D01*
X116603005Y-112502291D01*
X116558188Y-112472345D01*
X116512758Y-112441990D01*
X116436010Y-112365242D01*
X116375710Y-112274996D01*
X116375709Y-112274995D01*
X116334174Y-112174721D01*
X116313000Y-112068270D01*
X116313000Y-111959730D01*
X116334174Y-111853279D01*
X116375709Y-111753005D01*
X116436009Y-111662760D01*
X116436010Y-111662758D01*
X116512758Y-111586010D01*
X116603004Y-111525710D01*
X116603005Y-111525709D01*
X116703279Y-111484174D01*
X116809730Y-111463000D01*
X116918270Y-111463000D01*
X117024721Y-111484174D01*
G37*
G36*
X120024721Y-111484174D02*
G01*
X120124995Y-111525709D01*
X120124996Y-111525710D01*
X120215242Y-111586010D01*
X120291990Y-111662758D01*
X120291991Y-111662760D01*
X120352291Y-111753005D01*
X120393826Y-111853279D01*
X120415000Y-111959730D01*
X120415000Y-112068270D01*
X120393826Y-112174721D01*
X120352291Y-112274995D01*
X120352290Y-112274996D01*
X120291990Y-112365242D01*
X120215242Y-112441990D01*
X120169812Y-112472345D01*
X120124995Y-112502291D01*
X120024721Y-112543826D01*
X119918270Y-112565000D01*
X119809730Y-112565000D01*
X119703279Y-112543826D01*
X119603005Y-112502291D01*
X119558188Y-112472345D01*
X119512758Y-112441990D01*
X119436010Y-112365242D01*
X119375710Y-112274996D01*
X119375709Y-112274995D01*
X119334174Y-112174721D01*
X119313000Y-112068270D01*
X119313000Y-111959730D01*
X119334174Y-111853279D01*
X119375709Y-111753005D01*
X119436009Y-111662760D01*
X119436010Y-111662758D01*
X119512758Y-111586010D01*
X119603004Y-111525710D01*
X119603005Y-111525709D01*
X119703279Y-111484174D01*
X119809730Y-111463000D01*
X119918270Y-111463000D01*
X120024721Y-111484174D01*
G37*
G36*
X116415000Y-110365000D02*
G01*
X115313000Y-110365000D01*
X115313000Y-108263000D01*
X116415000Y-108263000D01*
X116415000Y-110365000D01*
G37*
G36*
X121415000Y-110365000D02*
G01*
X120313000Y-110365000D01*
X120313000Y-108263000D01*
X121415000Y-108263000D01*
X121415000Y-110365000D01*
G37*
G36*
X118915000Y-110365000D02*
G01*
X117813000Y-110365000D01*
X117813000Y-108263000D01*
X118915000Y-108263000D01*
X118915000Y-110365000D01*
G37*
G36*
X119330056Y-97091532D02*
G01*
X119544519Y-97180365D01*
X119847814Y-97305994D01*
X120313783Y-97617345D01*
X120710057Y-98013619D01*
X121021408Y-98479588D01*
X121147037Y-98782883D01*
X121235870Y-98997346D01*
X121345201Y-99546992D01*
X121345201Y-100107410D01*
X121235870Y-100657056D01*
X121147037Y-100871519D01*
X121021408Y-101174814D01*
X120710057Y-101640783D01*
X120313783Y-102037057D01*
X119847814Y-102348408D01*
X119544519Y-102474037D01*
X119330056Y-102562870D01*
X118780410Y-102672201D01*
X118219992Y-102672201D01*
X117670346Y-102562870D01*
X117455883Y-102474037D01*
X117152588Y-102348408D01*
X116686619Y-102037057D01*
X116290345Y-101640783D01*
X115978994Y-101174814D01*
X115853365Y-100871519D01*
X115764532Y-100657056D01*
X115655201Y-100107410D01*
X115655201Y-99546992D01*
X115764532Y-98997346D01*
X115853365Y-98782883D01*
X115978994Y-98479588D01*
X116290345Y-98013619D01*
X116686619Y-97617345D01*
X117152588Y-97305994D01*
X117455883Y-97180365D01*
X117670346Y-97091532D01*
X118219992Y-96982201D01*
X118780410Y-96982201D01*
X119330056Y-97091532D01*
G37*
G36*
X112042201Y-101628201D02*
G01*
X107940201Y-101628201D01*
X107940201Y-98026201D01*
X112042201Y-98026201D01*
X112042201Y-101628201D01*
G37*
G36*
X129060201Y-101628201D02*
G01*
X124958201Y-101628201D01*
X124958201Y-98026201D01*
X129060201Y-98026201D01*
X129060201Y-101628201D01*
G37*
G36*
X118942456Y-86478498D02*
G01*
X119048779Y-86499647D01*
X119349242Y-86624103D01*
X119619651Y-86804785D01*
X119849615Y-87034749D01*
X120030297Y-87305158D01*
X120154753Y-87605621D01*
X120218200Y-87924591D01*
X120218200Y-88249809D01*
X120154753Y-88568779D01*
X120030297Y-88869242D01*
X119849615Y-89139651D01*
X119619651Y-89369615D01*
X119349242Y-89550297D01*
X119048779Y-89674753D01*
X118942456Y-89695902D01*
X118729811Y-89738200D01*
X118404589Y-89738200D01*
X118191944Y-89695902D01*
X118085621Y-89674753D01*
X117785158Y-89550297D01*
X117514749Y-89369615D01*
X117284785Y-89139651D01*
X117104103Y-88869242D01*
X116979647Y-88568779D01*
X116916200Y-88249809D01*
X116916200Y-87924591D01*
X116979647Y-87605621D01*
X117104103Y-87305158D01*
X117284785Y-87034749D01*
X117514749Y-86804785D01*
X117785158Y-86624103D01*
X118085621Y-86499647D01*
X118191944Y-86478498D01*
X118404589Y-86436200D01*
X118729811Y-86436200D01*
X118942456Y-86478498D01*
G37*
M02*
