G04 #@! TF.GenerationSoftware,KiCad,Pcbnew,(5.1.5)-3*
G04 #@! TF.CreationDate,2020-05-09T20:06:52-07:00*
G04 #@! TF.ProjectId,Rosie_SMD,526f7369-655f-4534-9d44-2e6b69636164,Version A2*
G04 #@! TF.SameCoordinates,Original*
G04 #@! TF.FileFunction,Legend,Top*
G04 #@! TF.FilePolarity,Positive*
%FSLAX46Y46*%
G04 Gerber Fmt 4.6, Leading zero omitted, Abs format (unit mm)*
G04 Created by KiCad (PCBNEW (5.1.5)-3) date 2020-05-09 20:06:52*
%MOMM*%
%LPD*%
G04 APERTURE LIST*
%ADD10C,0.120000*%
%ADD11C,0.150000*%
G04 APERTURE END LIST*
D10*
X125271600Y-107434748D02*
X125271600Y-107957252D01*
X123851600Y-107434748D02*
X123851600Y-107957252D01*
X128118800Y-107434748D02*
X128118800Y-107957252D01*
X129538800Y-107434748D02*
X129538800Y-107957252D01*
X124960748Y-89307600D02*
X125483252Y-89307600D01*
X124960748Y-90727600D02*
X125483252Y-90727600D01*
X123800800Y-94800052D02*
X123800800Y-94277548D01*
X125220800Y-94800052D02*
X125220800Y-94277548D01*
X129437200Y-94698452D02*
X129437200Y-94175948D01*
X128017200Y-94698452D02*
X128017200Y-94175948D01*
X112427652Y-89460000D02*
X111905148Y-89460000D01*
X112427652Y-90880000D02*
X111905148Y-90880000D01*
X127203200Y-103652000D02*
X129153200Y-103652000D01*
X127203200Y-103652000D02*
X125253200Y-103652000D01*
X127203200Y-98532000D02*
X129153200Y-98532000D01*
X127203200Y-98532000D02*
X123753200Y-98532000D01*
D11*
X126325333Y-108053142D02*
X126277714Y-108100761D01*
X126134857Y-108148380D01*
X126039619Y-108148380D01*
X125896761Y-108100761D01*
X125801523Y-108005523D01*
X125753904Y-107910285D01*
X125706285Y-107719809D01*
X125706285Y-107576952D01*
X125753904Y-107386476D01*
X125801523Y-107291238D01*
X125896761Y-107196000D01*
X126039619Y-107148380D01*
X126134857Y-107148380D01*
X126277714Y-107196000D01*
X126325333Y-107243619D01*
X127277714Y-108148380D02*
X126706285Y-108148380D01*
X126992000Y-108148380D02*
X126992000Y-107148380D01*
X126896761Y-107291238D01*
X126801523Y-107386476D01*
X126706285Y-107434095D01*
X130516333Y-108053142D02*
X130468714Y-108100761D01*
X130325857Y-108148380D01*
X130230619Y-108148380D01*
X130087761Y-108100761D01*
X129992523Y-108005523D01*
X129944904Y-107910285D01*
X129897285Y-107719809D01*
X129897285Y-107576952D01*
X129944904Y-107386476D01*
X129992523Y-107291238D01*
X130087761Y-107196000D01*
X130230619Y-107148380D01*
X130325857Y-107148380D01*
X130468714Y-107196000D01*
X130516333Y-107243619D01*
X130897285Y-107243619D02*
X130944904Y-107196000D01*
X131040142Y-107148380D01*
X131278238Y-107148380D01*
X131373476Y-107196000D01*
X131421095Y-107243619D01*
X131468714Y-107338857D01*
X131468714Y-107434095D01*
X131421095Y-107576952D01*
X130849666Y-108148380D01*
X131468714Y-108148380D01*
X124483904Y-88819980D02*
X124483904Y-87819980D01*
X124722000Y-87819980D01*
X124864857Y-87867600D01*
X124960095Y-87962838D01*
X125007714Y-88058076D01*
X125055333Y-88248552D01*
X125055333Y-88391409D01*
X125007714Y-88581885D01*
X124960095Y-88677123D01*
X124864857Y-88772361D01*
X124722000Y-88819980D01*
X124483904Y-88819980D01*
X126007714Y-88819980D02*
X125436285Y-88819980D01*
X125722000Y-88819980D02*
X125722000Y-87819980D01*
X125626761Y-87962838D01*
X125531523Y-88058076D01*
X125436285Y-88105695D01*
X126198333Y-94940380D02*
X125865000Y-94464190D01*
X125626904Y-94940380D02*
X125626904Y-93940380D01*
X126007857Y-93940380D01*
X126103095Y-93988000D01*
X126150714Y-94035619D01*
X126198333Y-94130857D01*
X126198333Y-94273714D01*
X126150714Y-94368952D01*
X126103095Y-94416571D01*
X126007857Y-94464190D01*
X125626904Y-94464190D01*
X127150714Y-94940380D02*
X126579285Y-94940380D01*
X126865000Y-94940380D02*
X126865000Y-93940380D01*
X126769761Y-94083238D01*
X126674523Y-94178476D01*
X126579285Y-94226095D01*
X130389333Y-94940380D02*
X130056000Y-94464190D01*
X129817904Y-94940380D02*
X129817904Y-93940380D01*
X130198857Y-93940380D01*
X130294095Y-93988000D01*
X130341714Y-94035619D01*
X130389333Y-94130857D01*
X130389333Y-94273714D01*
X130341714Y-94368952D01*
X130294095Y-94416571D01*
X130198857Y-94464190D01*
X129817904Y-94464190D01*
X130770285Y-94035619D02*
X130817904Y-93988000D01*
X130913142Y-93940380D01*
X131151238Y-93940380D01*
X131246476Y-93988000D01*
X131294095Y-94035619D01*
X131341714Y-94130857D01*
X131341714Y-94226095D01*
X131294095Y-94368952D01*
X130722666Y-94940380D01*
X131341714Y-94940380D01*
X112101333Y-88844380D02*
X111768000Y-88368190D01*
X111529904Y-88844380D02*
X111529904Y-87844380D01*
X111910857Y-87844380D01*
X112006095Y-87892000D01*
X112053714Y-87939619D01*
X112101333Y-88034857D01*
X112101333Y-88177714D01*
X112053714Y-88272952D01*
X112006095Y-88320571D01*
X111910857Y-88368190D01*
X111529904Y-88368190D01*
X112434666Y-87844380D02*
X113053714Y-87844380D01*
X112720380Y-88225333D01*
X112863238Y-88225333D01*
X112958476Y-88272952D01*
X113006095Y-88320571D01*
X113053714Y-88415809D01*
X113053714Y-88653904D01*
X113006095Y-88749142D01*
X112958476Y-88796761D01*
X112863238Y-88844380D01*
X112577523Y-88844380D01*
X112482285Y-88796761D01*
X112434666Y-88749142D01*
X126441295Y-97144380D02*
X126441295Y-97953904D01*
X126488914Y-98049142D01*
X126536533Y-98096761D01*
X126631771Y-98144380D01*
X126822247Y-98144380D01*
X126917485Y-98096761D01*
X126965104Y-98049142D01*
X127012723Y-97953904D01*
X127012723Y-97144380D01*
X128012723Y-98144380D02*
X127441295Y-98144380D01*
X127727009Y-98144380D02*
X127727009Y-97144380D01*
X127631771Y-97287238D01*
X127536533Y-97382476D01*
X127441295Y-97430095D01*
M02*
