G04 #@! TF.GenerationSoftware,KiCad,Pcbnew,(5.1.5)-3*
G04 #@! TF.CreationDate,2020-05-09T20:06:52-07:00*
G04 #@! TF.ProjectId,Rosie_SMD,526f7369-655f-4534-9d44-2e6b69636164,Version A2*
G04 #@! TF.SameCoordinates,Original*
G04 #@! TF.FileFunction,Copper,L2,Bot*
G04 #@! TF.FilePolarity,Positive*
%FSLAX46Y46*%
G04 Gerber Fmt 4.6, Leading zero omitted, Abs format (unit mm)*
G04 Created by KiCad (PCBNEW (5.1.5)-3) date 2020-05-09 20:06:52*
%MOMM*%
%LPD*%
G04 APERTURE LIST*
%ADD10R,4.000000X3.500001*%
%ADD11C,5.588000*%
%ADD12C,1.000000*%
%ADD13R,1.000000X2.000000*%
%ADD14C,0.800000*%
%ADD15C,0.250000*%
%ADD16C,0.254000*%
G04 APERTURE END LIST*
D10*
X109991201Y-99827201D03*
X127009201Y-99827201D03*
D11*
X118500201Y-99827201D03*
D12*
X116864000Y-112014000D03*
X119864000Y-112014000D03*
D13*
X118364000Y-109314000D03*
X120864000Y-109314000D03*
X115864000Y-109314000D03*
D14*
X122682000Y-90170000D03*
X123788010Y-97790000D03*
X124587000Y-110363000D03*
X126619000Y-110363000D03*
X130302000Y-104140000D03*
X125185405Y-96801275D03*
X126492000Y-102897000D03*
X131826000Y-99060000D03*
D15*
X118500201Y-94351799D02*
X118500201Y-99827201D01*
X122682000Y-90170000D02*
X118500201Y-94351799D01*
X123788010Y-98490704D02*
X123788010Y-97790000D01*
X118500201Y-99827201D02*
X122451513Y-99827201D01*
X122451513Y-99827201D02*
X123788010Y-98490704D01*
X127000000Y-99836402D02*
X127009201Y-99827201D01*
X109991201Y-100847201D02*
X114935000Y-105791000D01*
X109991201Y-99827201D02*
X109991201Y-100847201D01*
X114935000Y-105791000D02*
X122174000Y-105791000D01*
X122174000Y-105791000D02*
X127000000Y-100965000D01*
X127000000Y-100965000D02*
X127000000Y-99836402D01*
X115262499Y-110998000D02*
X117930000Y-110998000D01*
X109982000Y-99836402D02*
X109982000Y-101600000D01*
X114554000Y-106172000D02*
X114554000Y-110289501D01*
X109991201Y-99827201D02*
X109982000Y-99836402D01*
X109982000Y-101600000D02*
X114554000Y-106172000D01*
X118364000Y-110564000D02*
X118364000Y-109314000D01*
X117930000Y-110998000D02*
X118364000Y-110564000D01*
X114554000Y-110289501D02*
X115262499Y-110998000D01*
X115864000Y-108064000D02*
X116740000Y-107188000D01*
X115864000Y-109314000D02*
X115864000Y-108064000D01*
X116740000Y-107188000D02*
X121920000Y-107188000D01*
X126092001Y-103296999D02*
X126492000Y-102897000D01*
X122201000Y-107188000D02*
X126092001Y-103296999D01*
X121920000Y-107188000D02*
X122201000Y-107188000D01*
X128016000Y-104902000D02*
X131318000Y-104902000D01*
X125730000Y-107188000D02*
X128016000Y-104902000D01*
X131318000Y-104902000D02*
X131826000Y-104394000D01*
X125751090Y-96801275D02*
X125185405Y-96801275D01*
X121920000Y-107188000D02*
X125730000Y-107188000D01*
X131826000Y-104394000D02*
X131826000Y-99060000D01*
X129567275Y-96801275D02*
X125751090Y-96801275D01*
X131826000Y-99060000D02*
X129567275Y-96801275D01*
D16*
G36*
X120117677Y-85074468D02*
G01*
X121601966Y-85301853D01*
X123055635Y-85678234D01*
X124463768Y-86199749D01*
X125811916Y-86861047D01*
X127086244Y-87655342D01*
X128273677Y-88574483D01*
X129362029Y-89609039D01*
X130340133Y-90748394D01*
X131197952Y-91980856D01*
X131926684Y-93293779D01*
X132518850Y-94673690D01*
X132968375Y-96106430D01*
X133270646Y-97577297D01*
X133422561Y-99071198D01*
X133422561Y-100572802D01*
X133270646Y-102066703D01*
X132968375Y-103537570D01*
X132518850Y-104970310D01*
X131926684Y-106350221D01*
X131197952Y-107663144D01*
X130340133Y-108895606D01*
X129362029Y-110034961D01*
X128273677Y-111069517D01*
X127086244Y-111988658D01*
X125811916Y-112782953D01*
X124463768Y-113444251D01*
X123055635Y-113965766D01*
X121601966Y-114342147D01*
X120117677Y-114569532D01*
X118618000Y-114645587D01*
X117118323Y-114569532D01*
X115634034Y-114342147D01*
X114180365Y-113965766D01*
X112772232Y-113444251D01*
X111424084Y-112782953D01*
X110149756Y-111988658D01*
X108962323Y-111069517D01*
X107873971Y-110034961D01*
X106895867Y-108895606D01*
X106038048Y-107663144D01*
X105309316Y-106350221D01*
X104717150Y-104970310D01*
X104267625Y-103537570D01*
X103965354Y-102066703D01*
X103813439Y-100572802D01*
X103813439Y-99071198D01*
X103914518Y-98077201D01*
X107353129Y-98077201D01*
X107353129Y-101577201D01*
X107365389Y-101701683D01*
X107401699Y-101821381D01*
X107460664Y-101931695D01*
X107540016Y-102028386D01*
X107636707Y-102107738D01*
X107747021Y-102166703D01*
X107866719Y-102203013D01*
X107991201Y-102215273D01*
X109522472Y-102215273D01*
X113794000Y-106486803D01*
X113794001Y-110252169D01*
X113790324Y-110289501D01*
X113804998Y-110438486D01*
X113848454Y-110581747D01*
X113919026Y-110713777D01*
X113961216Y-110765185D01*
X114014000Y-110829502D01*
X114042998Y-110853300D01*
X114698700Y-111509002D01*
X114722498Y-111538001D01*
X114751496Y-111561799D01*
X114838222Y-111632974D01*
X114931688Y-111682933D01*
X114970252Y-111703546D01*
X115113513Y-111747003D01*
X115225166Y-111758000D01*
X115225176Y-111758000D01*
X115262499Y-111761676D01*
X115299822Y-111758000D01*
X115757685Y-111758000D01*
X115729000Y-111902212D01*
X115729000Y-112125788D01*
X115772617Y-112345067D01*
X115858176Y-112551624D01*
X115982388Y-112737520D01*
X116140480Y-112895612D01*
X116326376Y-113019824D01*
X116532933Y-113105383D01*
X116752212Y-113149000D01*
X116975788Y-113149000D01*
X117195067Y-113105383D01*
X117401624Y-113019824D01*
X117587520Y-112895612D01*
X117745612Y-112737520D01*
X117869824Y-112551624D01*
X117955383Y-112345067D01*
X117999000Y-112125788D01*
X117999000Y-111902212D01*
X117970257Y-111757712D01*
X118078986Y-111747003D01*
X118222247Y-111703546D01*
X118354276Y-111632974D01*
X118470001Y-111538001D01*
X118493804Y-111508997D01*
X118874998Y-111127803D01*
X118904001Y-111104001D01*
X118998974Y-110988276D01*
X119031923Y-110926634D01*
X119108180Y-110903502D01*
X119218494Y-110844537D01*
X119315185Y-110765185D01*
X119394537Y-110668494D01*
X119453502Y-110558180D01*
X119489812Y-110438482D01*
X119502072Y-110314000D01*
X119502072Y-108314000D01*
X119489812Y-108189518D01*
X119453502Y-108069820D01*
X119394537Y-107959506D01*
X119385094Y-107948000D01*
X119842906Y-107948000D01*
X119833463Y-107959506D01*
X119774498Y-108069820D01*
X119738188Y-108189518D01*
X119725928Y-108314000D01*
X119725928Y-110314000D01*
X119738188Y-110438482D01*
X119774498Y-110558180D01*
X119833463Y-110668494D01*
X119912815Y-110765185D01*
X120009506Y-110844537D01*
X120119820Y-110903502D01*
X120159534Y-110915549D01*
X119975788Y-110879000D01*
X119752212Y-110879000D01*
X119532933Y-110922617D01*
X119326376Y-111008176D01*
X119140480Y-111132388D01*
X118982388Y-111290480D01*
X118858176Y-111476376D01*
X118772617Y-111682933D01*
X118729000Y-111902212D01*
X118729000Y-112125788D01*
X118772617Y-112345067D01*
X118858176Y-112551624D01*
X118982388Y-112737520D01*
X119140480Y-112895612D01*
X119326376Y-113019824D01*
X119532933Y-113105383D01*
X119752212Y-113149000D01*
X119975788Y-113149000D01*
X120195067Y-113105383D01*
X120401624Y-113019824D01*
X120587520Y-112895612D01*
X120745612Y-112737520D01*
X120869824Y-112551624D01*
X120955383Y-112345067D01*
X120999000Y-112125788D01*
X120999000Y-111902212D01*
X120955383Y-111682933D01*
X120869824Y-111476376D01*
X120745612Y-111290480D01*
X120587520Y-111132388D01*
X120401624Y-111008176D01*
X120228539Y-110936481D01*
X120239518Y-110939812D01*
X120364000Y-110952072D01*
X121364000Y-110952072D01*
X121488482Y-110939812D01*
X121608180Y-110903502D01*
X121718494Y-110844537D01*
X121815185Y-110765185D01*
X121894537Y-110668494D01*
X121953502Y-110558180D01*
X121989812Y-110438482D01*
X122002072Y-110314000D01*
X122002072Y-108314000D01*
X121989812Y-108189518D01*
X121953502Y-108069820D01*
X121894537Y-107959506D01*
X121885094Y-107948000D01*
X122163678Y-107948000D01*
X122201000Y-107951676D01*
X122238322Y-107948000D01*
X125692678Y-107948000D01*
X125730000Y-107951676D01*
X125767322Y-107948000D01*
X125767333Y-107948000D01*
X125878986Y-107937003D01*
X126022247Y-107893546D01*
X126154276Y-107822974D01*
X126270001Y-107728001D01*
X126293804Y-107698997D01*
X128330802Y-105662000D01*
X131280678Y-105662000D01*
X131318000Y-105665676D01*
X131355322Y-105662000D01*
X131355333Y-105662000D01*
X131466986Y-105651003D01*
X131610247Y-105607546D01*
X131742276Y-105536974D01*
X131858001Y-105442001D01*
X131881803Y-105412998D01*
X132337003Y-104957798D01*
X132366001Y-104934001D01*
X132460974Y-104818276D01*
X132531546Y-104686247D01*
X132575003Y-104542986D01*
X132586000Y-104431333D01*
X132586000Y-104431324D01*
X132589676Y-104394001D01*
X132586000Y-104356678D01*
X132586000Y-99763711D01*
X132629937Y-99719774D01*
X132743205Y-99550256D01*
X132821226Y-99361898D01*
X132861000Y-99161939D01*
X132861000Y-98958061D01*
X132821226Y-98758102D01*
X132743205Y-98569744D01*
X132629937Y-98400226D01*
X132485774Y-98256063D01*
X132316256Y-98142795D01*
X132127898Y-98064774D01*
X131927939Y-98025000D01*
X131865802Y-98025000D01*
X130131079Y-96290278D01*
X130107276Y-96261274D01*
X129991551Y-96166301D01*
X129859522Y-96095729D01*
X129716261Y-96052272D01*
X129604608Y-96041275D01*
X129604597Y-96041275D01*
X129567275Y-96037599D01*
X129529953Y-96041275D01*
X125889116Y-96041275D01*
X125845179Y-95997338D01*
X125675661Y-95884070D01*
X125487303Y-95806049D01*
X125287344Y-95766275D01*
X125083466Y-95766275D01*
X124883507Y-95806049D01*
X124695149Y-95884070D01*
X124525631Y-95997338D01*
X124381468Y-96141501D01*
X124268200Y-96311019D01*
X124190179Y-96499377D01*
X124150405Y-96699336D01*
X124150405Y-96903214D01*
X124190179Y-97103173D01*
X124268200Y-97291531D01*
X124381468Y-97461049D01*
X124525631Y-97605212D01*
X124557573Y-97626555D01*
X124478664Y-97722707D01*
X124419699Y-97833021D01*
X124383389Y-97952719D01*
X124371129Y-98077201D01*
X124371129Y-101577201D01*
X124383389Y-101701683D01*
X124419699Y-101821381D01*
X124478664Y-101931695D01*
X124558016Y-102028386D01*
X124654707Y-102107738D01*
X124737960Y-102152238D01*
X121859199Y-105031000D01*
X115249802Y-105031000D01*
X112458218Y-102239416D01*
X116267591Y-102239416D01*
X116579054Y-102687497D01*
X117173985Y-103007335D01*
X117819882Y-103204962D01*
X118491922Y-103272782D01*
X119164281Y-103208192D01*
X119811120Y-103013671D01*
X120407580Y-102696696D01*
X120421348Y-102687497D01*
X120732811Y-102239416D01*
X118500201Y-100006806D01*
X116267591Y-102239416D01*
X112458218Y-102239416D01*
X112333212Y-102114410D01*
X112345695Y-102107738D01*
X112442386Y-102028386D01*
X112521738Y-101931695D01*
X112580703Y-101821381D01*
X112617013Y-101701683D01*
X112629273Y-101577201D01*
X112629273Y-99818922D01*
X115054620Y-99818922D01*
X115119210Y-100491281D01*
X115313731Y-101138120D01*
X115630706Y-101734580D01*
X115639905Y-101748348D01*
X116087986Y-102059811D01*
X118320596Y-99827201D01*
X118679806Y-99827201D01*
X120912416Y-102059811D01*
X121360497Y-101748348D01*
X121680335Y-101153417D01*
X121877962Y-100507520D01*
X121945782Y-99835480D01*
X121881192Y-99163121D01*
X121686671Y-98516282D01*
X121369696Y-97919822D01*
X121360497Y-97906054D01*
X120912416Y-97594591D01*
X118679806Y-99827201D01*
X118320596Y-99827201D01*
X116087986Y-97594591D01*
X115639905Y-97906054D01*
X115320067Y-98500985D01*
X115122440Y-99146882D01*
X115054620Y-99818922D01*
X112629273Y-99818922D01*
X112629273Y-98077201D01*
X112617013Y-97952719D01*
X112580703Y-97833021D01*
X112521738Y-97722707D01*
X112442386Y-97626016D01*
X112345695Y-97546664D01*
X112235381Y-97487699D01*
X112115683Y-97451389D01*
X111991201Y-97439129D01*
X107991201Y-97439129D01*
X107866719Y-97451389D01*
X107747021Y-97487699D01*
X107636707Y-97546664D01*
X107540016Y-97626016D01*
X107460664Y-97722707D01*
X107401699Y-97833021D01*
X107365389Y-97952719D01*
X107353129Y-98077201D01*
X103914518Y-98077201D01*
X103965354Y-97577297D01*
X103998709Y-97414986D01*
X116267591Y-97414986D01*
X118500201Y-99647596D01*
X120732811Y-97414986D01*
X120421348Y-96966905D01*
X119826417Y-96647067D01*
X119180520Y-96449440D01*
X118508480Y-96381620D01*
X117836121Y-96446210D01*
X117189282Y-96640731D01*
X116592822Y-96957706D01*
X116579054Y-96966905D01*
X116267591Y-97414986D01*
X103998709Y-97414986D01*
X104267625Y-96106430D01*
X104717150Y-94673690D01*
X105309316Y-93293779D01*
X106038048Y-91980856D01*
X106895867Y-90748394D01*
X107873971Y-89609039D01*
X108962323Y-88574483D01*
X109876223Y-87867072D01*
X116332200Y-87867072D01*
X116332200Y-88307328D01*
X116418090Y-88739125D01*
X116586569Y-89145869D01*
X116831162Y-89511929D01*
X117142471Y-89823238D01*
X117508531Y-90067831D01*
X117915275Y-90236310D01*
X118347072Y-90322200D01*
X118787328Y-90322200D01*
X119219125Y-90236310D01*
X119625869Y-90067831D01*
X119991929Y-89823238D01*
X120303238Y-89511929D01*
X120547831Y-89145869D01*
X120716310Y-88739125D01*
X120802200Y-88307328D01*
X120802200Y-87867072D01*
X120716310Y-87435275D01*
X120547831Y-87028531D01*
X120303238Y-86662471D01*
X119991929Y-86351162D01*
X119625869Y-86106569D01*
X119219125Y-85938090D01*
X118787328Y-85852200D01*
X118347072Y-85852200D01*
X117915275Y-85938090D01*
X117508531Y-86106569D01*
X117142471Y-86351162D01*
X116831162Y-86662471D01*
X116586569Y-87028531D01*
X116418090Y-87435275D01*
X116332200Y-87867072D01*
X109876223Y-87867072D01*
X110149756Y-87655342D01*
X111424084Y-86861047D01*
X112772232Y-86199749D01*
X114180365Y-85678234D01*
X115634034Y-85301853D01*
X117118323Y-85074468D01*
X118618000Y-84998413D01*
X120117677Y-85074468D01*
G37*
X120117677Y-85074468D02*
X121601966Y-85301853D01*
X123055635Y-85678234D01*
X124463768Y-86199749D01*
X125811916Y-86861047D01*
X127086244Y-87655342D01*
X128273677Y-88574483D01*
X129362029Y-89609039D01*
X130340133Y-90748394D01*
X131197952Y-91980856D01*
X131926684Y-93293779D01*
X132518850Y-94673690D01*
X132968375Y-96106430D01*
X133270646Y-97577297D01*
X133422561Y-99071198D01*
X133422561Y-100572802D01*
X133270646Y-102066703D01*
X132968375Y-103537570D01*
X132518850Y-104970310D01*
X131926684Y-106350221D01*
X131197952Y-107663144D01*
X130340133Y-108895606D01*
X129362029Y-110034961D01*
X128273677Y-111069517D01*
X127086244Y-111988658D01*
X125811916Y-112782953D01*
X124463768Y-113444251D01*
X123055635Y-113965766D01*
X121601966Y-114342147D01*
X120117677Y-114569532D01*
X118618000Y-114645587D01*
X117118323Y-114569532D01*
X115634034Y-114342147D01*
X114180365Y-113965766D01*
X112772232Y-113444251D01*
X111424084Y-112782953D01*
X110149756Y-111988658D01*
X108962323Y-111069517D01*
X107873971Y-110034961D01*
X106895867Y-108895606D01*
X106038048Y-107663144D01*
X105309316Y-106350221D01*
X104717150Y-104970310D01*
X104267625Y-103537570D01*
X103965354Y-102066703D01*
X103813439Y-100572802D01*
X103813439Y-99071198D01*
X103914518Y-98077201D01*
X107353129Y-98077201D01*
X107353129Y-101577201D01*
X107365389Y-101701683D01*
X107401699Y-101821381D01*
X107460664Y-101931695D01*
X107540016Y-102028386D01*
X107636707Y-102107738D01*
X107747021Y-102166703D01*
X107866719Y-102203013D01*
X107991201Y-102215273D01*
X109522472Y-102215273D01*
X113794000Y-106486803D01*
X113794001Y-110252169D01*
X113790324Y-110289501D01*
X113804998Y-110438486D01*
X113848454Y-110581747D01*
X113919026Y-110713777D01*
X113961216Y-110765185D01*
X114014000Y-110829502D01*
X114042998Y-110853300D01*
X114698700Y-111509002D01*
X114722498Y-111538001D01*
X114751496Y-111561799D01*
X114838222Y-111632974D01*
X114931688Y-111682933D01*
X114970252Y-111703546D01*
X115113513Y-111747003D01*
X115225166Y-111758000D01*
X115225176Y-111758000D01*
X115262499Y-111761676D01*
X115299822Y-111758000D01*
X115757685Y-111758000D01*
X115729000Y-111902212D01*
X115729000Y-112125788D01*
X115772617Y-112345067D01*
X115858176Y-112551624D01*
X115982388Y-112737520D01*
X116140480Y-112895612D01*
X116326376Y-113019824D01*
X116532933Y-113105383D01*
X116752212Y-113149000D01*
X116975788Y-113149000D01*
X117195067Y-113105383D01*
X117401624Y-113019824D01*
X117587520Y-112895612D01*
X117745612Y-112737520D01*
X117869824Y-112551624D01*
X117955383Y-112345067D01*
X117999000Y-112125788D01*
X117999000Y-111902212D01*
X117970257Y-111757712D01*
X118078986Y-111747003D01*
X118222247Y-111703546D01*
X118354276Y-111632974D01*
X118470001Y-111538001D01*
X118493804Y-111508997D01*
X118874998Y-111127803D01*
X118904001Y-111104001D01*
X118998974Y-110988276D01*
X119031923Y-110926634D01*
X119108180Y-110903502D01*
X119218494Y-110844537D01*
X119315185Y-110765185D01*
X119394537Y-110668494D01*
X119453502Y-110558180D01*
X119489812Y-110438482D01*
X119502072Y-110314000D01*
X119502072Y-108314000D01*
X119489812Y-108189518D01*
X119453502Y-108069820D01*
X119394537Y-107959506D01*
X119385094Y-107948000D01*
X119842906Y-107948000D01*
X119833463Y-107959506D01*
X119774498Y-108069820D01*
X119738188Y-108189518D01*
X119725928Y-108314000D01*
X119725928Y-110314000D01*
X119738188Y-110438482D01*
X119774498Y-110558180D01*
X119833463Y-110668494D01*
X119912815Y-110765185D01*
X120009506Y-110844537D01*
X120119820Y-110903502D01*
X120159534Y-110915549D01*
X119975788Y-110879000D01*
X119752212Y-110879000D01*
X119532933Y-110922617D01*
X119326376Y-111008176D01*
X119140480Y-111132388D01*
X118982388Y-111290480D01*
X118858176Y-111476376D01*
X118772617Y-111682933D01*
X118729000Y-111902212D01*
X118729000Y-112125788D01*
X118772617Y-112345067D01*
X118858176Y-112551624D01*
X118982388Y-112737520D01*
X119140480Y-112895612D01*
X119326376Y-113019824D01*
X119532933Y-113105383D01*
X119752212Y-113149000D01*
X119975788Y-113149000D01*
X120195067Y-113105383D01*
X120401624Y-113019824D01*
X120587520Y-112895612D01*
X120745612Y-112737520D01*
X120869824Y-112551624D01*
X120955383Y-112345067D01*
X120999000Y-112125788D01*
X120999000Y-111902212D01*
X120955383Y-111682933D01*
X120869824Y-111476376D01*
X120745612Y-111290480D01*
X120587520Y-111132388D01*
X120401624Y-111008176D01*
X120228539Y-110936481D01*
X120239518Y-110939812D01*
X120364000Y-110952072D01*
X121364000Y-110952072D01*
X121488482Y-110939812D01*
X121608180Y-110903502D01*
X121718494Y-110844537D01*
X121815185Y-110765185D01*
X121894537Y-110668494D01*
X121953502Y-110558180D01*
X121989812Y-110438482D01*
X122002072Y-110314000D01*
X122002072Y-108314000D01*
X121989812Y-108189518D01*
X121953502Y-108069820D01*
X121894537Y-107959506D01*
X121885094Y-107948000D01*
X122163678Y-107948000D01*
X122201000Y-107951676D01*
X122238322Y-107948000D01*
X125692678Y-107948000D01*
X125730000Y-107951676D01*
X125767322Y-107948000D01*
X125767333Y-107948000D01*
X125878986Y-107937003D01*
X126022247Y-107893546D01*
X126154276Y-107822974D01*
X126270001Y-107728001D01*
X126293804Y-107698997D01*
X128330802Y-105662000D01*
X131280678Y-105662000D01*
X131318000Y-105665676D01*
X131355322Y-105662000D01*
X131355333Y-105662000D01*
X131466986Y-105651003D01*
X131610247Y-105607546D01*
X131742276Y-105536974D01*
X131858001Y-105442001D01*
X131881803Y-105412998D01*
X132337003Y-104957798D01*
X132366001Y-104934001D01*
X132460974Y-104818276D01*
X132531546Y-104686247D01*
X132575003Y-104542986D01*
X132586000Y-104431333D01*
X132586000Y-104431324D01*
X132589676Y-104394001D01*
X132586000Y-104356678D01*
X132586000Y-99763711D01*
X132629937Y-99719774D01*
X132743205Y-99550256D01*
X132821226Y-99361898D01*
X132861000Y-99161939D01*
X132861000Y-98958061D01*
X132821226Y-98758102D01*
X132743205Y-98569744D01*
X132629937Y-98400226D01*
X132485774Y-98256063D01*
X132316256Y-98142795D01*
X132127898Y-98064774D01*
X131927939Y-98025000D01*
X131865802Y-98025000D01*
X130131079Y-96290278D01*
X130107276Y-96261274D01*
X129991551Y-96166301D01*
X129859522Y-96095729D01*
X129716261Y-96052272D01*
X129604608Y-96041275D01*
X129604597Y-96041275D01*
X129567275Y-96037599D01*
X129529953Y-96041275D01*
X125889116Y-96041275D01*
X125845179Y-95997338D01*
X125675661Y-95884070D01*
X125487303Y-95806049D01*
X125287344Y-95766275D01*
X125083466Y-95766275D01*
X124883507Y-95806049D01*
X124695149Y-95884070D01*
X124525631Y-95997338D01*
X124381468Y-96141501D01*
X124268200Y-96311019D01*
X124190179Y-96499377D01*
X124150405Y-96699336D01*
X124150405Y-96903214D01*
X124190179Y-97103173D01*
X124268200Y-97291531D01*
X124381468Y-97461049D01*
X124525631Y-97605212D01*
X124557573Y-97626555D01*
X124478664Y-97722707D01*
X124419699Y-97833021D01*
X124383389Y-97952719D01*
X124371129Y-98077201D01*
X124371129Y-101577201D01*
X124383389Y-101701683D01*
X124419699Y-101821381D01*
X124478664Y-101931695D01*
X124558016Y-102028386D01*
X124654707Y-102107738D01*
X124737960Y-102152238D01*
X121859199Y-105031000D01*
X115249802Y-105031000D01*
X112458218Y-102239416D01*
X116267591Y-102239416D01*
X116579054Y-102687497D01*
X117173985Y-103007335D01*
X117819882Y-103204962D01*
X118491922Y-103272782D01*
X119164281Y-103208192D01*
X119811120Y-103013671D01*
X120407580Y-102696696D01*
X120421348Y-102687497D01*
X120732811Y-102239416D01*
X118500201Y-100006806D01*
X116267591Y-102239416D01*
X112458218Y-102239416D01*
X112333212Y-102114410D01*
X112345695Y-102107738D01*
X112442386Y-102028386D01*
X112521738Y-101931695D01*
X112580703Y-101821381D01*
X112617013Y-101701683D01*
X112629273Y-101577201D01*
X112629273Y-99818922D01*
X115054620Y-99818922D01*
X115119210Y-100491281D01*
X115313731Y-101138120D01*
X115630706Y-101734580D01*
X115639905Y-101748348D01*
X116087986Y-102059811D01*
X118320596Y-99827201D01*
X118679806Y-99827201D01*
X120912416Y-102059811D01*
X121360497Y-101748348D01*
X121680335Y-101153417D01*
X121877962Y-100507520D01*
X121945782Y-99835480D01*
X121881192Y-99163121D01*
X121686671Y-98516282D01*
X121369696Y-97919822D01*
X121360497Y-97906054D01*
X120912416Y-97594591D01*
X118679806Y-99827201D01*
X118320596Y-99827201D01*
X116087986Y-97594591D01*
X115639905Y-97906054D01*
X115320067Y-98500985D01*
X115122440Y-99146882D01*
X115054620Y-99818922D01*
X112629273Y-99818922D01*
X112629273Y-98077201D01*
X112617013Y-97952719D01*
X112580703Y-97833021D01*
X112521738Y-97722707D01*
X112442386Y-97626016D01*
X112345695Y-97546664D01*
X112235381Y-97487699D01*
X112115683Y-97451389D01*
X111991201Y-97439129D01*
X107991201Y-97439129D01*
X107866719Y-97451389D01*
X107747021Y-97487699D01*
X107636707Y-97546664D01*
X107540016Y-97626016D01*
X107460664Y-97722707D01*
X107401699Y-97833021D01*
X107365389Y-97952719D01*
X107353129Y-98077201D01*
X103914518Y-98077201D01*
X103965354Y-97577297D01*
X103998709Y-97414986D01*
X116267591Y-97414986D01*
X118500201Y-99647596D01*
X120732811Y-97414986D01*
X120421348Y-96966905D01*
X119826417Y-96647067D01*
X119180520Y-96449440D01*
X118508480Y-96381620D01*
X117836121Y-96446210D01*
X117189282Y-96640731D01*
X116592822Y-96957706D01*
X116579054Y-96966905D01*
X116267591Y-97414986D01*
X103998709Y-97414986D01*
X104267625Y-96106430D01*
X104717150Y-94673690D01*
X105309316Y-93293779D01*
X106038048Y-91980856D01*
X106895867Y-90748394D01*
X107873971Y-89609039D01*
X108962323Y-88574483D01*
X109876223Y-87867072D01*
X116332200Y-87867072D01*
X116332200Y-88307328D01*
X116418090Y-88739125D01*
X116586569Y-89145869D01*
X116831162Y-89511929D01*
X117142471Y-89823238D01*
X117508531Y-90067831D01*
X117915275Y-90236310D01*
X118347072Y-90322200D01*
X118787328Y-90322200D01*
X119219125Y-90236310D01*
X119625869Y-90067831D01*
X119991929Y-89823238D01*
X120303238Y-89511929D01*
X120547831Y-89145869D01*
X120716310Y-88739125D01*
X120802200Y-88307328D01*
X120802200Y-87867072D01*
X120716310Y-87435275D01*
X120547831Y-87028531D01*
X120303238Y-86662471D01*
X119991929Y-86351162D01*
X119625869Y-86106569D01*
X119219125Y-85938090D01*
X118787328Y-85852200D01*
X118347072Y-85852200D01*
X117915275Y-85938090D01*
X117508531Y-86106569D01*
X117142471Y-86351162D01*
X116831162Y-86662471D01*
X116586569Y-87028531D01*
X116418090Y-87435275D01*
X116332200Y-87867072D01*
X109876223Y-87867072D01*
X110149756Y-87655342D01*
X111424084Y-86861047D01*
X112772232Y-86199749D01*
X114180365Y-85678234D01*
X115634034Y-85301853D01*
X117118323Y-85074468D01*
X118618000Y-84998413D01*
X120117677Y-85074468D01*
G36*
X130791000Y-99099802D02*
G01*
X130791000Y-99161939D01*
X130830774Y-99361898D01*
X130908795Y-99550256D01*
X131022063Y-99719774D01*
X131066001Y-99763712D01*
X131066000Y-104079198D01*
X131003199Y-104142000D01*
X128053322Y-104142000D01*
X128015999Y-104138324D01*
X127978676Y-104142000D01*
X127978667Y-104142000D01*
X127867014Y-104152997D01*
X127723753Y-104196454D01*
X127591724Y-104267026D01*
X127475999Y-104361999D01*
X127452201Y-104390997D01*
X125415199Y-106428000D01*
X124035802Y-106428000D01*
X126531803Y-103932000D01*
X126593939Y-103932000D01*
X126793898Y-103892226D01*
X126982256Y-103814205D01*
X127151774Y-103700937D01*
X127295937Y-103556774D01*
X127409205Y-103387256D01*
X127487226Y-103198898D01*
X127527000Y-102998939D01*
X127527000Y-102795061D01*
X127487226Y-102595102D01*
X127409205Y-102406744D01*
X127295937Y-102237226D01*
X127273984Y-102215273D01*
X129009201Y-102215273D01*
X129133683Y-102203013D01*
X129253381Y-102166703D01*
X129363695Y-102107738D01*
X129460386Y-102028386D01*
X129539738Y-101931695D01*
X129598703Y-101821381D01*
X129635013Y-101701683D01*
X129647273Y-101577201D01*
X129647273Y-98077201D01*
X129635013Y-97952719D01*
X129631136Y-97939937D01*
X130791000Y-99099802D01*
G37*
X130791000Y-99099802D02*
X130791000Y-99161939D01*
X130830774Y-99361898D01*
X130908795Y-99550256D01*
X131022063Y-99719774D01*
X131066001Y-99763712D01*
X131066000Y-104079198D01*
X131003199Y-104142000D01*
X128053322Y-104142000D01*
X128015999Y-104138324D01*
X127978676Y-104142000D01*
X127978667Y-104142000D01*
X127867014Y-104152997D01*
X127723753Y-104196454D01*
X127591724Y-104267026D01*
X127475999Y-104361999D01*
X127452201Y-104390997D01*
X125415199Y-106428000D01*
X124035802Y-106428000D01*
X126531803Y-103932000D01*
X126593939Y-103932000D01*
X126793898Y-103892226D01*
X126982256Y-103814205D01*
X127151774Y-103700937D01*
X127295937Y-103556774D01*
X127409205Y-103387256D01*
X127487226Y-103198898D01*
X127527000Y-102998939D01*
X127527000Y-102795061D01*
X127487226Y-102595102D01*
X127409205Y-102406744D01*
X127295937Y-102237226D01*
X127273984Y-102215273D01*
X129009201Y-102215273D01*
X129133683Y-102203013D01*
X129253381Y-102166703D01*
X129363695Y-102107738D01*
X129460386Y-102028386D01*
X129539738Y-101931695D01*
X129598703Y-101821381D01*
X129635013Y-101701683D01*
X129647273Y-101577201D01*
X129647273Y-98077201D01*
X129635013Y-97952719D01*
X129631136Y-97939937D01*
X130791000Y-99099802D01*
M02*
