G04 #@! TF.GenerationSoftware,KiCad,Pcbnew,(5.1.5)-3*
G04 #@! TF.CreationDate,2020-05-09T20:06:52-07:00*
G04 #@! TF.ProjectId,Rosie_SMD,526f7369-655f-4534-9d44-2e6b69636164,Version A2*
G04 #@! TF.SameCoordinates,Original*
G04 #@! TF.FileFunction,Copper,L1,Top*
G04 #@! TF.FilePolarity,Positive*
%FSLAX46Y46*%
G04 Gerber Fmt 4.6, Leading zero omitted, Abs format (unit mm)*
G04 Created by KiCad (PCBNEW (5.1.5)-3) date 2020-05-09 20:06:52*
%MOMM*%
%LPD*%
G04 APERTURE LIST*
%ADD10C,0.100000*%
%ADD11C,1.000000*%
%ADD12C,0.800000*%
%ADD13C,0.250000*%
G04 APERTURE END LIST*
G04 #@! TA.AperFunction,SMDPad,CuDef*
D10*
G36*
X125036105Y-106097204D02*
G01*
X125060373Y-106100804D01*
X125084172Y-106106765D01*
X125107271Y-106115030D01*
X125129450Y-106125520D01*
X125150493Y-106138132D01*
X125170199Y-106152747D01*
X125188377Y-106169223D01*
X125204853Y-106187401D01*
X125219468Y-106207107D01*
X125232080Y-106228150D01*
X125242570Y-106250329D01*
X125250835Y-106273428D01*
X125256796Y-106297227D01*
X125260396Y-106321495D01*
X125261600Y-106345999D01*
X125261600Y-106996001D01*
X125260396Y-107020505D01*
X125256796Y-107044773D01*
X125250835Y-107068572D01*
X125242570Y-107091671D01*
X125232080Y-107113850D01*
X125219468Y-107134893D01*
X125204853Y-107154599D01*
X125188377Y-107172777D01*
X125170199Y-107189253D01*
X125150493Y-107203868D01*
X125129450Y-107216480D01*
X125107271Y-107226970D01*
X125084172Y-107235235D01*
X125060373Y-107241196D01*
X125036105Y-107244796D01*
X125011601Y-107246000D01*
X124111599Y-107246000D01*
X124087095Y-107244796D01*
X124062827Y-107241196D01*
X124039028Y-107235235D01*
X124015929Y-107226970D01*
X123993750Y-107216480D01*
X123972707Y-107203868D01*
X123953001Y-107189253D01*
X123934823Y-107172777D01*
X123918347Y-107154599D01*
X123903732Y-107134893D01*
X123891120Y-107113850D01*
X123880630Y-107091671D01*
X123872365Y-107068572D01*
X123866404Y-107044773D01*
X123862804Y-107020505D01*
X123861600Y-106996001D01*
X123861600Y-106345999D01*
X123862804Y-106321495D01*
X123866404Y-106297227D01*
X123872365Y-106273428D01*
X123880630Y-106250329D01*
X123891120Y-106228150D01*
X123903732Y-106207107D01*
X123918347Y-106187401D01*
X123934823Y-106169223D01*
X123953001Y-106152747D01*
X123972707Y-106138132D01*
X123993750Y-106125520D01*
X124015929Y-106115030D01*
X124039028Y-106106765D01*
X124062827Y-106100804D01*
X124087095Y-106097204D01*
X124111599Y-106096000D01*
X125011601Y-106096000D01*
X125036105Y-106097204D01*
G37*
G04 #@! TD.AperFunction*
G04 #@! TA.AperFunction,SMDPad,CuDef*
G36*
X125036105Y-108147204D02*
G01*
X125060373Y-108150804D01*
X125084172Y-108156765D01*
X125107271Y-108165030D01*
X125129450Y-108175520D01*
X125150493Y-108188132D01*
X125170199Y-108202747D01*
X125188377Y-108219223D01*
X125204853Y-108237401D01*
X125219468Y-108257107D01*
X125232080Y-108278150D01*
X125242570Y-108300329D01*
X125250835Y-108323428D01*
X125256796Y-108347227D01*
X125260396Y-108371495D01*
X125261600Y-108395999D01*
X125261600Y-109046001D01*
X125260396Y-109070505D01*
X125256796Y-109094773D01*
X125250835Y-109118572D01*
X125242570Y-109141671D01*
X125232080Y-109163850D01*
X125219468Y-109184893D01*
X125204853Y-109204599D01*
X125188377Y-109222777D01*
X125170199Y-109239253D01*
X125150493Y-109253868D01*
X125129450Y-109266480D01*
X125107271Y-109276970D01*
X125084172Y-109285235D01*
X125060373Y-109291196D01*
X125036105Y-109294796D01*
X125011601Y-109296000D01*
X124111599Y-109296000D01*
X124087095Y-109294796D01*
X124062827Y-109291196D01*
X124039028Y-109285235D01*
X124015929Y-109276970D01*
X123993750Y-109266480D01*
X123972707Y-109253868D01*
X123953001Y-109239253D01*
X123934823Y-109222777D01*
X123918347Y-109204599D01*
X123903732Y-109184893D01*
X123891120Y-109163850D01*
X123880630Y-109141671D01*
X123872365Y-109118572D01*
X123866404Y-109094773D01*
X123862804Y-109070505D01*
X123861600Y-109046001D01*
X123861600Y-108395999D01*
X123862804Y-108371495D01*
X123866404Y-108347227D01*
X123872365Y-108323428D01*
X123880630Y-108300329D01*
X123891120Y-108278150D01*
X123903732Y-108257107D01*
X123918347Y-108237401D01*
X123934823Y-108219223D01*
X123953001Y-108202747D01*
X123972707Y-108188132D01*
X123993750Y-108175520D01*
X124015929Y-108165030D01*
X124039028Y-108156765D01*
X124062827Y-108150804D01*
X124087095Y-108147204D01*
X124111599Y-108146000D01*
X125011601Y-108146000D01*
X125036105Y-108147204D01*
G37*
G04 #@! TD.AperFunction*
G04 #@! TA.AperFunction,SMDPad,CuDef*
G36*
X129303305Y-108147204D02*
G01*
X129327573Y-108150804D01*
X129351372Y-108156765D01*
X129374471Y-108165030D01*
X129396650Y-108175520D01*
X129417693Y-108188132D01*
X129437399Y-108202747D01*
X129455577Y-108219223D01*
X129472053Y-108237401D01*
X129486668Y-108257107D01*
X129499280Y-108278150D01*
X129509770Y-108300329D01*
X129518035Y-108323428D01*
X129523996Y-108347227D01*
X129527596Y-108371495D01*
X129528800Y-108395999D01*
X129528800Y-109046001D01*
X129527596Y-109070505D01*
X129523996Y-109094773D01*
X129518035Y-109118572D01*
X129509770Y-109141671D01*
X129499280Y-109163850D01*
X129486668Y-109184893D01*
X129472053Y-109204599D01*
X129455577Y-109222777D01*
X129437399Y-109239253D01*
X129417693Y-109253868D01*
X129396650Y-109266480D01*
X129374471Y-109276970D01*
X129351372Y-109285235D01*
X129327573Y-109291196D01*
X129303305Y-109294796D01*
X129278801Y-109296000D01*
X128378799Y-109296000D01*
X128354295Y-109294796D01*
X128330027Y-109291196D01*
X128306228Y-109285235D01*
X128283129Y-109276970D01*
X128260950Y-109266480D01*
X128239907Y-109253868D01*
X128220201Y-109239253D01*
X128202023Y-109222777D01*
X128185547Y-109204599D01*
X128170932Y-109184893D01*
X128158320Y-109163850D01*
X128147830Y-109141671D01*
X128139565Y-109118572D01*
X128133604Y-109094773D01*
X128130004Y-109070505D01*
X128128800Y-109046001D01*
X128128800Y-108395999D01*
X128130004Y-108371495D01*
X128133604Y-108347227D01*
X128139565Y-108323428D01*
X128147830Y-108300329D01*
X128158320Y-108278150D01*
X128170932Y-108257107D01*
X128185547Y-108237401D01*
X128202023Y-108219223D01*
X128220201Y-108202747D01*
X128239907Y-108188132D01*
X128260950Y-108175520D01*
X128283129Y-108165030D01*
X128306228Y-108156765D01*
X128330027Y-108150804D01*
X128354295Y-108147204D01*
X128378799Y-108146000D01*
X129278801Y-108146000D01*
X129303305Y-108147204D01*
G37*
G04 #@! TD.AperFunction*
G04 #@! TA.AperFunction,SMDPad,CuDef*
G36*
X129303305Y-106097204D02*
G01*
X129327573Y-106100804D01*
X129351372Y-106106765D01*
X129374471Y-106115030D01*
X129396650Y-106125520D01*
X129417693Y-106138132D01*
X129437399Y-106152747D01*
X129455577Y-106169223D01*
X129472053Y-106187401D01*
X129486668Y-106207107D01*
X129499280Y-106228150D01*
X129509770Y-106250329D01*
X129518035Y-106273428D01*
X129523996Y-106297227D01*
X129527596Y-106321495D01*
X129528800Y-106345999D01*
X129528800Y-106996001D01*
X129527596Y-107020505D01*
X129523996Y-107044773D01*
X129518035Y-107068572D01*
X129509770Y-107091671D01*
X129499280Y-107113850D01*
X129486668Y-107134893D01*
X129472053Y-107154599D01*
X129455577Y-107172777D01*
X129437399Y-107189253D01*
X129417693Y-107203868D01*
X129396650Y-107216480D01*
X129374471Y-107226970D01*
X129351372Y-107235235D01*
X129327573Y-107241196D01*
X129303305Y-107244796D01*
X129278801Y-107246000D01*
X128378799Y-107246000D01*
X128354295Y-107244796D01*
X128330027Y-107241196D01*
X128306228Y-107235235D01*
X128283129Y-107226970D01*
X128260950Y-107216480D01*
X128239907Y-107203868D01*
X128220201Y-107189253D01*
X128202023Y-107172777D01*
X128185547Y-107154599D01*
X128170932Y-107134893D01*
X128158320Y-107113850D01*
X128147830Y-107091671D01*
X128139565Y-107068572D01*
X128133604Y-107044773D01*
X128130004Y-107020505D01*
X128128800Y-106996001D01*
X128128800Y-106345999D01*
X128130004Y-106321495D01*
X128133604Y-106297227D01*
X128139565Y-106273428D01*
X128147830Y-106250329D01*
X128158320Y-106228150D01*
X128170932Y-106207107D01*
X128185547Y-106187401D01*
X128202023Y-106169223D01*
X128220201Y-106152747D01*
X128239907Y-106138132D01*
X128260950Y-106125520D01*
X128283129Y-106115030D01*
X128306228Y-106106765D01*
X128330027Y-106100804D01*
X128354295Y-106097204D01*
X128378799Y-106096000D01*
X129278801Y-106096000D01*
X129303305Y-106097204D01*
G37*
G04 #@! TD.AperFunction*
G04 #@! TA.AperFunction,SMDPad,CuDef*
G36*
X124546505Y-89318804D02*
G01*
X124570773Y-89322404D01*
X124594572Y-89328365D01*
X124617671Y-89336630D01*
X124639850Y-89347120D01*
X124660893Y-89359732D01*
X124680599Y-89374347D01*
X124698777Y-89390823D01*
X124715253Y-89409001D01*
X124729868Y-89428707D01*
X124742480Y-89449750D01*
X124752970Y-89471929D01*
X124761235Y-89495028D01*
X124767196Y-89518827D01*
X124770796Y-89543095D01*
X124772000Y-89567599D01*
X124772000Y-90467601D01*
X124770796Y-90492105D01*
X124767196Y-90516373D01*
X124761235Y-90540172D01*
X124752970Y-90563271D01*
X124742480Y-90585450D01*
X124729868Y-90606493D01*
X124715253Y-90626199D01*
X124698777Y-90644377D01*
X124680599Y-90660853D01*
X124660893Y-90675468D01*
X124639850Y-90688080D01*
X124617671Y-90698570D01*
X124594572Y-90706835D01*
X124570773Y-90712796D01*
X124546505Y-90716396D01*
X124522001Y-90717600D01*
X123871999Y-90717600D01*
X123847495Y-90716396D01*
X123823227Y-90712796D01*
X123799428Y-90706835D01*
X123776329Y-90698570D01*
X123754150Y-90688080D01*
X123733107Y-90675468D01*
X123713401Y-90660853D01*
X123695223Y-90644377D01*
X123678747Y-90626199D01*
X123664132Y-90606493D01*
X123651520Y-90585450D01*
X123641030Y-90563271D01*
X123632765Y-90540172D01*
X123626804Y-90516373D01*
X123623204Y-90492105D01*
X123622000Y-90467601D01*
X123622000Y-89567599D01*
X123623204Y-89543095D01*
X123626804Y-89518827D01*
X123632765Y-89495028D01*
X123641030Y-89471929D01*
X123651520Y-89449750D01*
X123664132Y-89428707D01*
X123678747Y-89409001D01*
X123695223Y-89390823D01*
X123713401Y-89374347D01*
X123733107Y-89359732D01*
X123754150Y-89347120D01*
X123776329Y-89336630D01*
X123799428Y-89328365D01*
X123823227Y-89322404D01*
X123847495Y-89318804D01*
X123871999Y-89317600D01*
X124522001Y-89317600D01*
X124546505Y-89318804D01*
G37*
G04 #@! TD.AperFunction*
G04 #@! TA.AperFunction,SMDPad,CuDef*
G36*
X126596505Y-89318804D02*
G01*
X126620773Y-89322404D01*
X126644572Y-89328365D01*
X126667671Y-89336630D01*
X126689850Y-89347120D01*
X126710893Y-89359732D01*
X126730599Y-89374347D01*
X126748777Y-89390823D01*
X126765253Y-89409001D01*
X126779868Y-89428707D01*
X126792480Y-89449750D01*
X126802970Y-89471929D01*
X126811235Y-89495028D01*
X126817196Y-89518827D01*
X126820796Y-89543095D01*
X126822000Y-89567599D01*
X126822000Y-90467601D01*
X126820796Y-90492105D01*
X126817196Y-90516373D01*
X126811235Y-90540172D01*
X126802970Y-90563271D01*
X126792480Y-90585450D01*
X126779868Y-90606493D01*
X126765253Y-90626199D01*
X126748777Y-90644377D01*
X126730599Y-90660853D01*
X126710893Y-90675468D01*
X126689850Y-90688080D01*
X126667671Y-90698570D01*
X126644572Y-90706835D01*
X126620773Y-90712796D01*
X126596505Y-90716396D01*
X126572001Y-90717600D01*
X125921999Y-90717600D01*
X125897495Y-90716396D01*
X125873227Y-90712796D01*
X125849428Y-90706835D01*
X125826329Y-90698570D01*
X125804150Y-90688080D01*
X125783107Y-90675468D01*
X125763401Y-90660853D01*
X125745223Y-90644377D01*
X125728747Y-90626199D01*
X125714132Y-90606493D01*
X125701520Y-90585450D01*
X125691030Y-90563271D01*
X125682765Y-90540172D01*
X125676804Y-90516373D01*
X125673204Y-90492105D01*
X125672000Y-90467601D01*
X125672000Y-89567599D01*
X125673204Y-89543095D01*
X125676804Y-89518827D01*
X125682765Y-89495028D01*
X125691030Y-89471929D01*
X125701520Y-89449750D01*
X125714132Y-89428707D01*
X125728747Y-89409001D01*
X125745223Y-89390823D01*
X125763401Y-89374347D01*
X125783107Y-89359732D01*
X125804150Y-89347120D01*
X125826329Y-89336630D01*
X125849428Y-89328365D01*
X125873227Y-89322404D01*
X125897495Y-89318804D01*
X125921999Y-89317600D01*
X126572001Y-89317600D01*
X126596505Y-89318804D01*
G37*
G04 #@! TD.AperFunction*
G04 #@! TA.AperFunction,SMDPad,CuDef*
G36*
X124985305Y-94990004D02*
G01*
X125009573Y-94993604D01*
X125033372Y-94999565D01*
X125056471Y-95007830D01*
X125078650Y-95018320D01*
X125099693Y-95030932D01*
X125119399Y-95045547D01*
X125137577Y-95062023D01*
X125154053Y-95080201D01*
X125168668Y-95099907D01*
X125181280Y-95120950D01*
X125191770Y-95143129D01*
X125200035Y-95166228D01*
X125205996Y-95190027D01*
X125209596Y-95214295D01*
X125210800Y-95238799D01*
X125210800Y-95888801D01*
X125209596Y-95913305D01*
X125205996Y-95937573D01*
X125200035Y-95961372D01*
X125191770Y-95984471D01*
X125181280Y-96006650D01*
X125168668Y-96027693D01*
X125154053Y-96047399D01*
X125137577Y-96065577D01*
X125119399Y-96082053D01*
X125099693Y-96096668D01*
X125078650Y-96109280D01*
X125056471Y-96119770D01*
X125033372Y-96128035D01*
X125009573Y-96133996D01*
X124985305Y-96137596D01*
X124960801Y-96138800D01*
X124060799Y-96138800D01*
X124036295Y-96137596D01*
X124012027Y-96133996D01*
X123988228Y-96128035D01*
X123965129Y-96119770D01*
X123942950Y-96109280D01*
X123921907Y-96096668D01*
X123902201Y-96082053D01*
X123884023Y-96065577D01*
X123867547Y-96047399D01*
X123852932Y-96027693D01*
X123840320Y-96006650D01*
X123829830Y-95984471D01*
X123821565Y-95961372D01*
X123815604Y-95937573D01*
X123812004Y-95913305D01*
X123810800Y-95888801D01*
X123810800Y-95238799D01*
X123812004Y-95214295D01*
X123815604Y-95190027D01*
X123821565Y-95166228D01*
X123829830Y-95143129D01*
X123840320Y-95120950D01*
X123852932Y-95099907D01*
X123867547Y-95080201D01*
X123884023Y-95062023D01*
X123902201Y-95045547D01*
X123921907Y-95030932D01*
X123942950Y-95018320D01*
X123965129Y-95007830D01*
X123988228Y-94999565D01*
X124012027Y-94993604D01*
X124036295Y-94990004D01*
X124060799Y-94988800D01*
X124960801Y-94988800D01*
X124985305Y-94990004D01*
G37*
G04 #@! TD.AperFunction*
G04 #@! TA.AperFunction,SMDPad,CuDef*
G36*
X124985305Y-92940004D02*
G01*
X125009573Y-92943604D01*
X125033372Y-92949565D01*
X125056471Y-92957830D01*
X125078650Y-92968320D01*
X125099693Y-92980932D01*
X125119399Y-92995547D01*
X125137577Y-93012023D01*
X125154053Y-93030201D01*
X125168668Y-93049907D01*
X125181280Y-93070950D01*
X125191770Y-93093129D01*
X125200035Y-93116228D01*
X125205996Y-93140027D01*
X125209596Y-93164295D01*
X125210800Y-93188799D01*
X125210800Y-93838801D01*
X125209596Y-93863305D01*
X125205996Y-93887573D01*
X125200035Y-93911372D01*
X125191770Y-93934471D01*
X125181280Y-93956650D01*
X125168668Y-93977693D01*
X125154053Y-93997399D01*
X125137577Y-94015577D01*
X125119399Y-94032053D01*
X125099693Y-94046668D01*
X125078650Y-94059280D01*
X125056471Y-94069770D01*
X125033372Y-94078035D01*
X125009573Y-94083996D01*
X124985305Y-94087596D01*
X124960801Y-94088800D01*
X124060799Y-94088800D01*
X124036295Y-94087596D01*
X124012027Y-94083996D01*
X123988228Y-94078035D01*
X123965129Y-94069770D01*
X123942950Y-94059280D01*
X123921907Y-94046668D01*
X123902201Y-94032053D01*
X123884023Y-94015577D01*
X123867547Y-93997399D01*
X123852932Y-93977693D01*
X123840320Y-93956650D01*
X123829830Y-93934471D01*
X123821565Y-93911372D01*
X123815604Y-93887573D01*
X123812004Y-93863305D01*
X123810800Y-93838801D01*
X123810800Y-93188799D01*
X123812004Y-93164295D01*
X123815604Y-93140027D01*
X123821565Y-93116228D01*
X123829830Y-93093129D01*
X123840320Y-93070950D01*
X123852932Y-93049907D01*
X123867547Y-93030201D01*
X123884023Y-93012023D01*
X123902201Y-92995547D01*
X123921907Y-92980932D01*
X123942950Y-92968320D01*
X123965129Y-92957830D01*
X123988228Y-92949565D01*
X124012027Y-92943604D01*
X124036295Y-92940004D01*
X124060799Y-92938800D01*
X124960801Y-92938800D01*
X124985305Y-92940004D01*
G37*
G04 #@! TD.AperFunction*
G04 #@! TA.AperFunction,SMDPad,CuDef*
G36*
X129201705Y-92838404D02*
G01*
X129225973Y-92842004D01*
X129249772Y-92847965D01*
X129272871Y-92856230D01*
X129295050Y-92866720D01*
X129316093Y-92879332D01*
X129335799Y-92893947D01*
X129353977Y-92910423D01*
X129370453Y-92928601D01*
X129385068Y-92948307D01*
X129397680Y-92969350D01*
X129408170Y-92991529D01*
X129416435Y-93014628D01*
X129422396Y-93038427D01*
X129425996Y-93062695D01*
X129427200Y-93087199D01*
X129427200Y-93737201D01*
X129425996Y-93761705D01*
X129422396Y-93785973D01*
X129416435Y-93809772D01*
X129408170Y-93832871D01*
X129397680Y-93855050D01*
X129385068Y-93876093D01*
X129370453Y-93895799D01*
X129353977Y-93913977D01*
X129335799Y-93930453D01*
X129316093Y-93945068D01*
X129295050Y-93957680D01*
X129272871Y-93968170D01*
X129249772Y-93976435D01*
X129225973Y-93982396D01*
X129201705Y-93985996D01*
X129177201Y-93987200D01*
X128277199Y-93987200D01*
X128252695Y-93985996D01*
X128228427Y-93982396D01*
X128204628Y-93976435D01*
X128181529Y-93968170D01*
X128159350Y-93957680D01*
X128138307Y-93945068D01*
X128118601Y-93930453D01*
X128100423Y-93913977D01*
X128083947Y-93895799D01*
X128069332Y-93876093D01*
X128056720Y-93855050D01*
X128046230Y-93832871D01*
X128037965Y-93809772D01*
X128032004Y-93785973D01*
X128028404Y-93761705D01*
X128027200Y-93737201D01*
X128027200Y-93087199D01*
X128028404Y-93062695D01*
X128032004Y-93038427D01*
X128037965Y-93014628D01*
X128046230Y-92991529D01*
X128056720Y-92969350D01*
X128069332Y-92948307D01*
X128083947Y-92928601D01*
X128100423Y-92910423D01*
X128118601Y-92893947D01*
X128138307Y-92879332D01*
X128159350Y-92866720D01*
X128181529Y-92856230D01*
X128204628Y-92847965D01*
X128228427Y-92842004D01*
X128252695Y-92838404D01*
X128277199Y-92837200D01*
X129177201Y-92837200D01*
X129201705Y-92838404D01*
G37*
G04 #@! TD.AperFunction*
G04 #@! TA.AperFunction,SMDPad,CuDef*
G36*
X129201705Y-94888404D02*
G01*
X129225973Y-94892004D01*
X129249772Y-94897965D01*
X129272871Y-94906230D01*
X129295050Y-94916720D01*
X129316093Y-94929332D01*
X129335799Y-94943947D01*
X129353977Y-94960423D01*
X129370453Y-94978601D01*
X129385068Y-94998307D01*
X129397680Y-95019350D01*
X129408170Y-95041529D01*
X129416435Y-95064628D01*
X129422396Y-95088427D01*
X129425996Y-95112695D01*
X129427200Y-95137199D01*
X129427200Y-95787201D01*
X129425996Y-95811705D01*
X129422396Y-95835973D01*
X129416435Y-95859772D01*
X129408170Y-95882871D01*
X129397680Y-95905050D01*
X129385068Y-95926093D01*
X129370453Y-95945799D01*
X129353977Y-95963977D01*
X129335799Y-95980453D01*
X129316093Y-95995068D01*
X129295050Y-96007680D01*
X129272871Y-96018170D01*
X129249772Y-96026435D01*
X129225973Y-96032396D01*
X129201705Y-96035996D01*
X129177201Y-96037200D01*
X128277199Y-96037200D01*
X128252695Y-96035996D01*
X128228427Y-96032396D01*
X128204628Y-96026435D01*
X128181529Y-96018170D01*
X128159350Y-96007680D01*
X128138307Y-95995068D01*
X128118601Y-95980453D01*
X128100423Y-95963977D01*
X128083947Y-95945799D01*
X128069332Y-95926093D01*
X128056720Y-95905050D01*
X128046230Y-95882871D01*
X128037965Y-95859772D01*
X128032004Y-95835973D01*
X128028404Y-95811705D01*
X128027200Y-95787201D01*
X128027200Y-95137199D01*
X128028404Y-95112695D01*
X128032004Y-95088427D01*
X128037965Y-95064628D01*
X128046230Y-95041529D01*
X128056720Y-95019350D01*
X128069332Y-94998307D01*
X128083947Y-94978601D01*
X128100423Y-94960423D01*
X128118601Y-94943947D01*
X128138307Y-94929332D01*
X128159350Y-94916720D01*
X128181529Y-94906230D01*
X128204628Y-94897965D01*
X128228427Y-94892004D01*
X128252695Y-94888404D01*
X128277199Y-94887200D01*
X129177201Y-94887200D01*
X129201705Y-94888404D01*
G37*
G04 #@! TD.AperFunction*
G04 #@! TA.AperFunction,SMDPad,CuDef*
G36*
X111490905Y-89471204D02*
G01*
X111515173Y-89474804D01*
X111538972Y-89480765D01*
X111562071Y-89489030D01*
X111584250Y-89499520D01*
X111605293Y-89512132D01*
X111624999Y-89526747D01*
X111643177Y-89543223D01*
X111659653Y-89561401D01*
X111674268Y-89581107D01*
X111686880Y-89602150D01*
X111697370Y-89624329D01*
X111705635Y-89647428D01*
X111711596Y-89671227D01*
X111715196Y-89695495D01*
X111716400Y-89719999D01*
X111716400Y-90620001D01*
X111715196Y-90644505D01*
X111711596Y-90668773D01*
X111705635Y-90692572D01*
X111697370Y-90715671D01*
X111686880Y-90737850D01*
X111674268Y-90758893D01*
X111659653Y-90778599D01*
X111643177Y-90796777D01*
X111624999Y-90813253D01*
X111605293Y-90827868D01*
X111584250Y-90840480D01*
X111562071Y-90850970D01*
X111538972Y-90859235D01*
X111515173Y-90865196D01*
X111490905Y-90868796D01*
X111466401Y-90870000D01*
X110816399Y-90870000D01*
X110791895Y-90868796D01*
X110767627Y-90865196D01*
X110743828Y-90859235D01*
X110720729Y-90850970D01*
X110698550Y-90840480D01*
X110677507Y-90827868D01*
X110657801Y-90813253D01*
X110639623Y-90796777D01*
X110623147Y-90778599D01*
X110608532Y-90758893D01*
X110595920Y-90737850D01*
X110585430Y-90715671D01*
X110577165Y-90692572D01*
X110571204Y-90668773D01*
X110567604Y-90644505D01*
X110566400Y-90620001D01*
X110566400Y-89719999D01*
X110567604Y-89695495D01*
X110571204Y-89671227D01*
X110577165Y-89647428D01*
X110585430Y-89624329D01*
X110595920Y-89602150D01*
X110608532Y-89581107D01*
X110623147Y-89561401D01*
X110639623Y-89543223D01*
X110657801Y-89526747D01*
X110677507Y-89512132D01*
X110698550Y-89499520D01*
X110720729Y-89489030D01*
X110743828Y-89480765D01*
X110767627Y-89474804D01*
X110791895Y-89471204D01*
X110816399Y-89470000D01*
X111466401Y-89470000D01*
X111490905Y-89471204D01*
G37*
G04 #@! TD.AperFunction*
G04 #@! TA.AperFunction,SMDPad,CuDef*
G36*
X113540905Y-89471204D02*
G01*
X113565173Y-89474804D01*
X113588972Y-89480765D01*
X113612071Y-89489030D01*
X113634250Y-89499520D01*
X113655293Y-89512132D01*
X113674999Y-89526747D01*
X113693177Y-89543223D01*
X113709653Y-89561401D01*
X113724268Y-89581107D01*
X113736880Y-89602150D01*
X113747370Y-89624329D01*
X113755635Y-89647428D01*
X113761596Y-89671227D01*
X113765196Y-89695495D01*
X113766400Y-89719999D01*
X113766400Y-90620001D01*
X113765196Y-90644505D01*
X113761596Y-90668773D01*
X113755635Y-90692572D01*
X113747370Y-90715671D01*
X113736880Y-90737850D01*
X113724268Y-90758893D01*
X113709653Y-90778599D01*
X113693177Y-90796777D01*
X113674999Y-90813253D01*
X113655293Y-90827868D01*
X113634250Y-90840480D01*
X113612071Y-90850970D01*
X113588972Y-90859235D01*
X113565173Y-90865196D01*
X113540905Y-90868796D01*
X113516401Y-90870000D01*
X112866399Y-90870000D01*
X112841895Y-90868796D01*
X112817627Y-90865196D01*
X112793828Y-90859235D01*
X112770729Y-90850970D01*
X112748550Y-90840480D01*
X112727507Y-90827868D01*
X112707801Y-90813253D01*
X112689623Y-90796777D01*
X112673147Y-90778599D01*
X112658532Y-90758893D01*
X112645920Y-90737850D01*
X112635430Y-90715671D01*
X112627165Y-90692572D01*
X112621204Y-90668773D01*
X112617604Y-90644505D01*
X112616400Y-90620001D01*
X112616400Y-89719999D01*
X112617604Y-89695495D01*
X112621204Y-89671227D01*
X112627165Y-89647428D01*
X112635430Y-89624329D01*
X112645920Y-89602150D01*
X112658532Y-89581107D01*
X112673147Y-89561401D01*
X112689623Y-89543223D01*
X112707801Y-89526747D01*
X112727507Y-89512132D01*
X112748550Y-89499520D01*
X112770729Y-89489030D01*
X112793828Y-89480765D01*
X112817627Y-89474804D01*
X112841895Y-89471204D01*
X112866399Y-89470000D01*
X113516401Y-89470000D01*
X113540905Y-89471204D01*
G37*
G04 #@! TD.AperFunction*
D11*
X116864000Y-112014000D03*
X119864000Y-112014000D03*
G04 #@! TA.AperFunction,SMDPad,CuDef*
D10*
G36*
X125567903Y-98887722D02*
G01*
X125582464Y-98889882D01*
X125596743Y-98893459D01*
X125610603Y-98898418D01*
X125623910Y-98904712D01*
X125636536Y-98912280D01*
X125648359Y-98921048D01*
X125659266Y-98930934D01*
X125669152Y-98941841D01*
X125677920Y-98953664D01*
X125685488Y-98966290D01*
X125691782Y-98979597D01*
X125696741Y-98993457D01*
X125700318Y-99007736D01*
X125702478Y-99022297D01*
X125703200Y-99037000D01*
X125703200Y-99337000D01*
X125702478Y-99351703D01*
X125700318Y-99366264D01*
X125696741Y-99380543D01*
X125691782Y-99394403D01*
X125685488Y-99407710D01*
X125677920Y-99420336D01*
X125669152Y-99432159D01*
X125659266Y-99443066D01*
X125648359Y-99452952D01*
X125636536Y-99461720D01*
X125623910Y-99469288D01*
X125610603Y-99475582D01*
X125596743Y-99480541D01*
X125582464Y-99484118D01*
X125567903Y-99486278D01*
X125553200Y-99487000D01*
X123903200Y-99487000D01*
X123888497Y-99486278D01*
X123873936Y-99484118D01*
X123859657Y-99480541D01*
X123845797Y-99475582D01*
X123832490Y-99469288D01*
X123819864Y-99461720D01*
X123808041Y-99452952D01*
X123797134Y-99443066D01*
X123787248Y-99432159D01*
X123778480Y-99420336D01*
X123770912Y-99407710D01*
X123764618Y-99394403D01*
X123759659Y-99380543D01*
X123756082Y-99366264D01*
X123753922Y-99351703D01*
X123753200Y-99337000D01*
X123753200Y-99037000D01*
X123753922Y-99022297D01*
X123756082Y-99007736D01*
X123759659Y-98993457D01*
X123764618Y-98979597D01*
X123770912Y-98966290D01*
X123778480Y-98953664D01*
X123787248Y-98941841D01*
X123797134Y-98930934D01*
X123808041Y-98921048D01*
X123819864Y-98912280D01*
X123832490Y-98904712D01*
X123845797Y-98898418D01*
X123859657Y-98893459D01*
X123873936Y-98889882D01*
X123888497Y-98887722D01*
X123903200Y-98887000D01*
X125553200Y-98887000D01*
X125567903Y-98887722D01*
G37*
G04 #@! TD.AperFunction*
G04 #@! TA.AperFunction,SMDPad,CuDef*
G36*
X125567903Y-100157722D02*
G01*
X125582464Y-100159882D01*
X125596743Y-100163459D01*
X125610603Y-100168418D01*
X125623910Y-100174712D01*
X125636536Y-100182280D01*
X125648359Y-100191048D01*
X125659266Y-100200934D01*
X125669152Y-100211841D01*
X125677920Y-100223664D01*
X125685488Y-100236290D01*
X125691782Y-100249597D01*
X125696741Y-100263457D01*
X125700318Y-100277736D01*
X125702478Y-100292297D01*
X125703200Y-100307000D01*
X125703200Y-100607000D01*
X125702478Y-100621703D01*
X125700318Y-100636264D01*
X125696741Y-100650543D01*
X125691782Y-100664403D01*
X125685488Y-100677710D01*
X125677920Y-100690336D01*
X125669152Y-100702159D01*
X125659266Y-100713066D01*
X125648359Y-100722952D01*
X125636536Y-100731720D01*
X125623910Y-100739288D01*
X125610603Y-100745582D01*
X125596743Y-100750541D01*
X125582464Y-100754118D01*
X125567903Y-100756278D01*
X125553200Y-100757000D01*
X123903200Y-100757000D01*
X123888497Y-100756278D01*
X123873936Y-100754118D01*
X123859657Y-100750541D01*
X123845797Y-100745582D01*
X123832490Y-100739288D01*
X123819864Y-100731720D01*
X123808041Y-100722952D01*
X123797134Y-100713066D01*
X123787248Y-100702159D01*
X123778480Y-100690336D01*
X123770912Y-100677710D01*
X123764618Y-100664403D01*
X123759659Y-100650543D01*
X123756082Y-100636264D01*
X123753922Y-100621703D01*
X123753200Y-100607000D01*
X123753200Y-100307000D01*
X123753922Y-100292297D01*
X123756082Y-100277736D01*
X123759659Y-100263457D01*
X123764618Y-100249597D01*
X123770912Y-100236290D01*
X123778480Y-100223664D01*
X123787248Y-100211841D01*
X123797134Y-100200934D01*
X123808041Y-100191048D01*
X123819864Y-100182280D01*
X123832490Y-100174712D01*
X123845797Y-100168418D01*
X123859657Y-100163459D01*
X123873936Y-100159882D01*
X123888497Y-100157722D01*
X123903200Y-100157000D01*
X125553200Y-100157000D01*
X125567903Y-100157722D01*
G37*
G04 #@! TD.AperFunction*
G04 #@! TA.AperFunction,SMDPad,CuDef*
G36*
X125567903Y-101427722D02*
G01*
X125582464Y-101429882D01*
X125596743Y-101433459D01*
X125610603Y-101438418D01*
X125623910Y-101444712D01*
X125636536Y-101452280D01*
X125648359Y-101461048D01*
X125659266Y-101470934D01*
X125669152Y-101481841D01*
X125677920Y-101493664D01*
X125685488Y-101506290D01*
X125691782Y-101519597D01*
X125696741Y-101533457D01*
X125700318Y-101547736D01*
X125702478Y-101562297D01*
X125703200Y-101577000D01*
X125703200Y-101877000D01*
X125702478Y-101891703D01*
X125700318Y-101906264D01*
X125696741Y-101920543D01*
X125691782Y-101934403D01*
X125685488Y-101947710D01*
X125677920Y-101960336D01*
X125669152Y-101972159D01*
X125659266Y-101983066D01*
X125648359Y-101992952D01*
X125636536Y-102001720D01*
X125623910Y-102009288D01*
X125610603Y-102015582D01*
X125596743Y-102020541D01*
X125582464Y-102024118D01*
X125567903Y-102026278D01*
X125553200Y-102027000D01*
X123903200Y-102027000D01*
X123888497Y-102026278D01*
X123873936Y-102024118D01*
X123859657Y-102020541D01*
X123845797Y-102015582D01*
X123832490Y-102009288D01*
X123819864Y-102001720D01*
X123808041Y-101992952D01*
X123797134Y-101983066D01*
X123787248Y-101972159D01*
X123778480Y-101960336D01*
X123770912Y-101947710D01*
X123764618Y-101934403D01*
X123759659Y-101920543D01*
X123756082Y-101906264D01*
X123753922Y-101891703D01*
X123753200Y-101877000D01*
X123753200Y-101577000D01*
X123753922Y-101562297D01*
X123756082Y-101547736D01*
X123759659Y-101533457D01*
X123764618Y-101519597D01*
X123770912Y-101506290D01*
X123778480Y-101493664D01*
X123787248Y-101481841D01*
X123797134Y-101470934D01*
X123808041Y-101461048D01*
X123819864Y-101452280D01*
X123832490Y-101444712D01*
X123845797Y-101438418D01*
X123859657Y-101433459D01*
X123873936Y-101429882D01*
X123888497Y-101427722D01*
X123903200Y-101427000D01*
X125553200Y-101427000D01*
X125567903Y-101427722D01*
G37*
G04 #@! TD.AperFunction*
G04 #@! TA.AperFunction,SMDPad,CuDef*
G36*
X125567903Y-102697722D02*
G01*
X125582464Y-102699882D01*
X125596743Y-102703459D01*
X125610603Y-102708418D01*
X125623910Y-102714712D01*
X125636536Y-102722280D01*
X125648359Y-102731048D01*
X125659266Y-102740934D01*
X125669152Y-102751841D01*
X125677920Y-102763664D01*
X125685488Y-102776290D01*
X125691782Y-102789597D01*
X125696741Y-102803457D01*
X125700318Y-102817736D01*
X125702478Y-102832297D01*
X125703200Y-102847000D01*
X125703200Y-103147000D01*
X125702478Y-103161703D01*
X125700318Y-103176264D01*
X125696741Y-103190543D01*
X125691782Y-103204403D01*
X125685488Y-103217710D01*
X125677920Y-103230336D01*
X125669152Y-103242159D01*
X125659266Y-103253066D01*
X125648359Y-103262952D01*
X125636536Y-103271720D01*
X125623910Y-103279288D01*
X125610603Y-103285582D01*
X125596743Y-103290541D01*
X125582464Y-103294118D01*
X125567903Y-103296278D01*
X125553200Y-103297000D01*
X123903200Y-103297000D01*
X123888497Y-103296278D01*
X123873936Y-103294118D01*
X123859657Y-103290541D01*
X123845797Y-103285582D01*
X123832490Y-103279288D01*
X123819864Y-103271720D01*
X123808041Y-103262952D01*
X123797134Y-103253066D01*
X123787248Y-103242159D01*
X123778480Y-103230336D01*
X123770912Y-103217710D01*
X123764618Y-103204403D01*
X123759659Y-103190543D01*
X123756082Y-103176264D01*
X123753922Y-103161703D01*
X123753200Y-103147000D01*
X123753200Y-102847000D01*
X123753922Y-102832297D01*
X123756082Y-102817736D01*
X123759659Y-102803457D01*
X123764618Y-102789597D01*
X123770912Y-102776290D01*
X123778480Y-102763664D01*
X123787248Y-102751841D01*
X123797134Y-102740934D01*
X123808041Y-102731048D01*
X123819864Y-102722280D01*
X123832490Y-102714712D01*
X123845797Y-102708418D01*
X123859657Y-102703459D01*
X123873936Y-102699882D01*
X123888497Y-102697722D01*
X123903200Y-102697000D01*
X125553200Y-102697000D01*
X125567903Y-102697722D01*
G37*
G04 #@! TD.AperFunction*
G04 #@! TA.AperFunction,SMDPad,CuDef*
G36*
X130517903Y-102697722D02*
G01*
X130532464Y-102699882D01*
X130546743Y-102703459D01*
X130560603Y-102708418D01*
X130573910Y-102714712D01*
X130586536Y-102722280D01*
X130598359Y-102731048D01*
X130609266Y-102740934D01*
X130619152Y-102751841D01*
X130627920Y-102763664D01*
X130635488Y-102776290D01*
X130641782Y-102789597D01*
X130646741Y-102803457D01*
X130650318Y-102817736D01*
X130652478Y-102832297D01*
X130653200Y-102847000D01*
X130653200Y-103147000D01*
X130652478Y-103161703D01*
X130650318Y-103176264D01*
X130646741Y-103190543D01*
X130641782Y-103204403D01*
X130635488Y-103217710D01*
X130627920Y-103230336D01*
X130619152Y-103242159D01*
X130609266Y-103253066D01*
X130598359Y-103262952D01*
X130586536Y-103271720D01*
X130573910Y-103279288D01*
X130560603Y-103285582D01*
X130546743Y-103290541D01*
X130532464Y-103294118D01*
X130517903Y-103296278D01*
X130503200Y-103297000D01*
X128853200Y-103297000D01*
X128838497Y-103296278D01*
X128823936Y-103294118D01*
X128809657Y-103290541D01*
X128795797Y-103285582D01*
X128782490Y-103279288D01*
X128769864Y-103271720D01*
X128758041Y-103262952D01*
X128747134Y-103253066D01*
X128737248Y-103242159D01*
X128728480Y-103230336D01*
X128720912Y-103217710D01*
X128714618Y-103204403D01*
X128709659Y-103190543D01*
X128706082Y-103176264D01*
X128703922Y-103161703D01*
X128703200Y-103147000D01*
X128703200Y-102847000D01*
X128703922Y-102832297D01*
X128706082Y-102817736D01*
X128709659Y-102803457D01*
X128714618Y-102789597D01*
X128720912Y-102776290D01*
X128728480Y-102763664D01*
X128737248Y-102751841D01*
X128747134Y-102740934D01*
X128758041Y-102731048D01*
X128769864Y-102722280D01*
X128782490Y-102714712D01*
X128795797Y-102708418D01*
X128809657Y-102703459D01*
X128823936Y-102699882D01*
X128838497Y-102697722D01*
X128853200Y-102697000D01*
X130503200Y-102697000D01*
X130517903Y-102697722D01*
G37*
G04 #@! TD.AperFunction*
G04 #@! TA.AperFunction,SMDPad,CuDef*
G36*
X130517903Y-101427722D02*
G01*
X130532464Y-101429882D01*
X130546743Y-101433459D01*
X130560603Y-101438418D01*
X130573910Y-101444712D01*
X130586536Y-101452280D01*
X130598359Y-101461048D01*
X130609266Y-101470934D01*
X130619152Y-101481841D01*
X130627920Y-101493664D01*
X130635488Y-101506290D01*
X130641782Y-101519597D01*
X130646741Y-101533457D01*
X130650318Y-101547736D01*
X130652478Y-101562297D01*
X130653200Y-101577000D01*
X130653200Y-101877000D01*
X130652478Y-101891703D01*
X130650318Y-101906264D01*
X130646741Y-101920543D01*
X130641782Y-101934403D01*
X130635488Y-101947710D01*
X130627920Y-101960336D01*
X130619152Y-101972159D01*
X130609266Y-101983066D01*
X130598359Y-101992952D01*
X130586536Y-102001720D01*
X130573910Y-102009288D01*
X130560603Y-102015582D01*
X130546743Y-102020541D01*
X130532464Y-102024118D01*
X130517903Y-102026278D01*
X130503200Y-102027000D01*
X128853200Y-102027000D01*
X128838497Y-102026278D01*
X128823936Y-102024118D01*
X128809657Y-102020541D01*
X128795797Y-102015582D01*
X128782490Y-102009288D01*
X128769864Y-102001720D01*
X128758041Y-101992952D01*
X128747134Y-101983066D01*
X128737248Y-101972159D01*
X128728480Y-101960336D01*
X128720912Y-101947710D01*
X128714618Y-101934403D01*
X128709659Y-101920543D01*
X128706082Y-101906264D01*
X128703922Y-101891703D01*
X128703200Y-101877000D01*
X128703200Y-101577000D01*
X128703922Y-101562297D01*
X128706082Y-101547736D01*
X128709659Y-101533457D01*
X128714618Y-101519597D01*
X128720912Y-101506290D01*
X128728480Y-101493664D01*
X128737248Y-101481841D01*
X128747134Y-101470934D01*
X128758041Y-101461048D01*
X128769864Y-101452280D01*
X128782490Y-101444712D01*
X128795797Y-101438418D01*
X128809657Y-101433459D01*
X128823936Y-101429882D01*
X128838497Y-101427722D01*
X128853200Y-101427000D01*
X130503200Y-101427000D01*
X130517903Y-101427722D01*
G37*
G04 #@! TD.AperFunction*
G04 #@! TA.AperFunction,SMDPad,CuDef*
G36*
X130517903Y-100157722D02*
G01*
X130532464Y-100159882D01*
X130546743Y-100163459D01*
X130560603Y-100168418D01*
X130573910Y-100174712D01*
X130586536Y-100182280D01*
X130598359Y-100191048D01*
X130609266Y-100200934D01*
X130619152Y-100211841D01*
X130627920Y-100223664D01*
X130635488Y-100236290D01*
X130641782Y-100249597D01*
X130646741Y-100263457D01*
X130650318Y-100277736D01*
X130652478Y-100292297D01*
X130653200Y-100307000D01*
X130653200Y-100607000D01*
X130652478Y-100621703D01*
X130650318Y-100636264D01*
X130646741Y-100650543D01*
X130641782Y-100664403D01*
X130635488Y-100677710D01*
X130627920Y-100690336D01*
X130619152Y-100702159D01*
X130609266Y-100713066D01*
X130598359Y-100722952D01*
X130586536Y-100731720D01*
X130573910Y-100739288D01*
X130560603Y-100745582D01*
X130546743Y-100750541D01*
X130532464Y-100754118D01*
X130517903Y-100756278D01*
X130503200Y-100757000D01*
X128853200Y-100757000D01*
X128838497Y-100756278D01*
X128823936Y-100754118D01*
X128809657Y-100750541D01*
X128795797Y-100745582D01*
X128782490Y-100739288D01*
X128769864Y-100731720D01*
X128758041Y-100722952D01*
X128747134Y-100713066D01*
X128737248Y-100702159D01*
X128728480Y-100690336D01*
X128720912Y-100677710D01*
X128714618Y-100664403D01*
X128709659Y-100650543D01*
X128706082Y-100636264D01*
X128703922Y-100621703D01*
X128703200Y-100607000D01*
X128703200Y-100307000D01*
X128703922Y-100292297D01*
X128706082Y-100277736D01*
X128709659Y-100263457D01*
X128714618Y-100249597D01*
X128720912Y-100236290D01*
X128728480Y-100223664D01*
X128737248Y-100211841D01*
X128747134Y-100200934D01*
X128758041Y-100191048D01*
X128769864Y-100182280D01*
X128782490Y-100174712D01*
X128795797Y-100168418D01*
X128809657Y-100163459D01*
X128823936Y-100159882D01*
X128838497Y-100157722D01*
X128853200Y-100157000D01*
X130503200Y-100157000D01*
X130517903Y-100157722D01*
G37*
G04 #@! TD.AperFunction*
G04 #@! TA.AperFunction,SMDPad,CuDef*
G36*
X130517903Y-98887722D02*
G01*
X130532464Y-98889882D01*
X130546743Y-98893459D01*
X130560603Y-98898418D01*
X130573910Y-98904712D01*
X130586536Y-98912280D01*
X130598359Y-98921048D01*
X130609266Y-98930934D01*
X130619152Y-98941841D01*
X130627920Y-98953664D01*
X130635488Y-98966290D01*
X130641782Y-98979597D01*
X130646741Y-98993457D01*
X130650318Y-99007736D01*
X130652478Y-99022297D01*
X130653200Y-99037000D01*
X130653200Y-99337000D01*
X130652478Y-99351703D01*
X130650318Y-99366264D01*
X130646741Y-99380543D01*
X130641782Y-99394403D01*
X130635488Y-99407710D01*
X130627920Y-99420336D01*
X130619152Y-99432159D01*
X130609266Y-99443066D01*
X130598359Y-99452952D01*
X130586536Y-99461720D01*
X130573910Y-99469288D01*
X130560603Y-99475582D01*
X130546743Y-99480541D01*
X130532464Y-99484118D01*
X130517903Y-99486278D01*
X130503200Y-99487000D01*
X128853200Y-99487000D01*
X128838497Y-99486278D01*
X128823936Y-99484118D01*
X128809657Y-99480541D01*
X128795797Y-99475582D01*
X128782490Y-99469288D01*
X128769864Y-99461720D01*
X128758041Y-99452952D01*
X128747134Y-99443066D01*
X128737248Y-99432159D01*
X128728480Y-99420336D01*
X128720912Y-99407710D01*
X128714618Y-99394403D01*
X128709659Y-99380543D01*
X128706082Y-99366264D01*
X128703922Y-99351703D01*
X128703200Y-99337000D01*
X128703200Y-99037000D01*
X128703922Y-99022297D01*
X128706082Y-99007736D01*
X128709659Y-98993457D01*
X128714618Y-98979597D01*
X128720912Y-98966290D01*
X128728480Y-98953664D01*
X128737248Y-98941841D01*
X128747134Y-98930934D01*
X128758041Y-98921048D01*
X128769864Y-98912280D01*
X128782490Y-98904712D01*
X128795797Y-98898418D01*
X128809657Y-98893459D01*
X128823936Y-98889882D01*
X128838497Y-98887722D01*
X128853200Y-98887000D01*
X130503200Y-98887000D01*
X130517903Y-98887722D01*
G37*
G04 #@! TD.AperFunction*
D12*
X122682000Y-90170000D03*
X123788010Y-97790000D03*
X124587000Y-110363000D03*
X126619000Y-110363000D03*
X130302000Y-104140000D03*
X125185405Y-96801275D03*
X126492000Y-102897000D03*
X131826000Y-99060000D03*
D13*
X124197000Y-90017600D02*
X122834400Y-90017600D01*
X122834400Y-90017600D02*
X122682000Y-90170000D01*
X123788010Y-98246810D02*
X123788010Y-97790000D01*
X124728200Y-99187000D02*
X123788010Y-98246810D01*
X124561600Y-109296000D02*
X124587000Y-109321400D01*
X124561600Y-108721000D02*
X124561600Y-109296000D01*
X124587000Y-109321400D02*
X124587000Y-110363000D01*
X127761800Y-110363000D02*
X127184685Y-110363000D01*
X128828800Y-109296000D02*
X127761800Y-110363000D01*
X127184685Y-110363000D02*
X126619000Y-110363000D01*
X128828800Y-108721000D02*
X128828800Y-109296000D01*
X129528800Y-108721000D02*
X130302000Y-107947800D01*
X128828800Y-108721000D02*
X129528800Y-108721000D01*
X130302000Y-107947800D02*
X130302000Y-104140000D01*
X127702190Y-94899020D02*
X128113210Y-94488000D01*
X125703200Y-100457000D02*
X127702190Y-98458010D01*
X127702190Y-98458010D02*
X127702190Y-94899020D01*
X128226400Y-94488000D02*
X128727200Y-93987200D01*
X128727200Y-93987200D02*
X128727200Y-93412200D01*
X128113210Y-94488000D02*
X128226400Y-94488000D01*
X125703200Y-100457000D02*
X124728200Y-100457000D01*
X128930600Y-101727000D02*
X129678200Y-101727000D01*
X124561600Y-106671000D02*
X124561600Y-106096000D01*
X124561600Y-106096000D02*
X128930600Y-101727000D01*
X126846200Y-101600000D02*
X125703200Y-100457000D01*
X129678200Y-101727000D02*
X129551200Y-101600000D01*
X129551200Y-101600000D02*
X126846200Y-101600000D01*
X128828800Y-103846400D02*
X128828800Y-106671000D01*
X129678200Y-102997000D02*
X128828800Y-103846400D01*
X126247000Y-90717600D02*
X126247000Y-90017600D01*
X125720611Y-91243989D02*
X126247000Y-90717600D01*
X113191400Y-90170000D02*
X114265389Y-91243989D01*
X114265389Y-91243989D02*
X125720611Y-91243989D01*
X128378190Y-100131990D02*
X128378190Y-98418420D01*
X128378190Y-98418420D02*
X128727200Y-98069410D01*
X129752210Y-92849020D02*
X129752210Y-95137190D01*
X124937410Y-92512190D02*
X129415380Y-92512190D01*
X129427200Y-95462200D02*
X128727200Y-95462200D01*
X129752210Y-95137190D02*
X129427200Y-95462200D01*
X124510800Y-92938800D02*
X124937410Y-92512190D01*
X128703200Y-100457000D02*
X128378190Y-100131990D01*
X124510800Y-93513800D02*
X124510800Y-92938800D01*
X129415380Y-92512190D02*
X129752210Y-92849020D01*
X129678200Y-100457000D02*
X128703200Y-100457000D01*
X128727200Y-96037200D02*
X128727200Y-95462200D01*
X128727200Y-98069410D02*
X128727200Y-96037200D01*
X111141400Y-90870000D02*
X111141400Y-90170000D01*
X111965400Y-91694000D02*
X111141400Y-90870000D01*
X123753200Y-101727000D02*
X123063000Y-101036800D01*
X123063000Y-92583000D02*
X122174000Y-91694000D01*
X124728200Y-101727000D02*
X123753200Y-101727000D01*
X123063000Y-101036800D02*
X123063000Y-92583000D01*
X122174000Y-91694000D02*
X111965400Y-91694000D01*
X125173275Y-96801275D02*
X125185405Y-96801275D01*
X124510800Y-95563800D02*
X124510800Y-96138800D01*
X124510800Y-96138800D02*
X125173275Y-96801275D01*
X126392000Y-102997000D02*
X126492000Y-102897000D01*
X124728200Y-102997000D02*
X126392000Y-102997000D01*
X131826000Y-99060000D02*
X129805200Y-99060000D01*
X129805200Y-99060000D02*
X129678200Y-99187000D01*
M02*
